<svg width="24" height="24" viewBox="0 0 24 24" fill="none" xmlns="http://www.w3.org/2000/svg">
<path d="M12 20.1373C10.3804 20.1373 8.79733 19.6566 7.45128 18.7559C6.10523 17.8553 5.05682 16.5754 4.43889 15.0784C3.82096 13.5814 3.66132 11.9346 3.9802 10.3467C4.29908 8.75889 5.08213 7.30144 6.23013 6.15905C7.37813 5.01667 8.83941 4.24077 10.4288 3.92968C12.0182 3.61858 13.6642 3.78629 15.1581 4.41155C16.6521 5.03682 17.9269 6.09149 18.8209 7.44194C19.7149 8.79238 20.1879 10.3778 20.18 11.9973C20.1668 14.1591 19.2995 16.2279 17.7671 17.7527C16.2348 19.2776 14.1617 20.1347 12 20.1373ZM12 5.28735C10.6801 5.28736 9.38976 5.67839 8.2919 6.41108C7.19404 7.14377 6.33784 8.18528 5.83138 9.40414C5.32492 10.623 5.19089 11.9646 5.44622 13.2596C5.70155 14.5545 6.33478 15.7448 7.266 16.6802C8.19721 17.6156 9.38467 18.2542 10.6785 18.5153C11.9723 18.7764 13.3145 18.6484 14.5356 18.1474C15.7567 17.6464 16.802 16.7949 17.5396 15.7003C18.2772 14.6058 18.674 13.3172 18.68 11.9973C18.6839 11.1176 18.5141 10.2457 18.1801 9.43181C17.8462 8.61789 17.3548 7.87795 16.7341 7.25447C16.1134 6.63099 15.3757 6.13626 14.5632 5.79869C13.7508 5.46111 12.8797 5.28734 12 5.28735Z" fill="white"/>
<path d="M12 7.09875C11.8011 7.09875 11.6103 7.01973 11.4697 6.87908C11.329 6.73843 11.25 6.54766 11.25 6.34875V2.71875C11.25 2.51984 11.329 2.32907 11.4697 2.18842C11.6103 2.04777 11.8011 1.96875 12 1.96875C12.1989 1.96875 12.3897 2.04777 12.5303 2.18842C12.671 2.32907 12.75 2.51984 12.75 2.71875V6.34875C12.75 6.54766 12.671 6.73843 12.5303 6.87908C12.3897 7.01973 12.1989 7.09875 12 7.09875Z" fill="white"/>
<path d="M12 22.0003C11.8011 22.0003 11.6103 21.9213 11.4697 21.7806C11.329 21.64 11.25 21.4492 11.25 21.2503V17.5703C11.25 17.3714 11.329 17.1806 11.4697 17.04C11.6103 16.8993 11.8011 16.8203 12 16.8203C12.1989 16.8203 12.3897 16.8993 12.5303 17.04C12.671 17.1806 12.75 17.3714 12.75 17.5703V21.2003C12.7569 21.3029 12.7425 21.4059 12.7079 21.5027C12.6733 21.5995 12.6192 21.6882 12.5488 21.7633C12.4785 21.8383 12.3935 21.8981 12.299 21.9388C12.2046 21.9796 12.1028 22.0005 12 22.0003Z" fill="white"/>
<path d="M21.24 12.75H17.61C17.4111 12.75 17.2203 12.671 17.0797 12.5303C16.939 12.3897 16.86 12.1989 16.86 12C16.86 11.8011 16.939 11.6103 17.0797 11.4697C17.2203 11.329 17.4111 11.25 17.61 11.25H21.24C21.4389 11.25 21.6297 11.329 21.7703 11.4697C21.911 11.6103 21.99 11.8011 21.99 12C21.99 12.1989 21.911 12.3897 21.7703 12.5303C21.6297 12.671 21.4389 12.75 21.24 12.75Z" fill="white"/>
<path d="M6.39001 12.707H2.76001C2.5611 12.707 2.37033 12.628 2.22968 12.4874C2.08903 12.3467 2.01001 12.1559 2.01001 11.957C2.01001 11.7581 2.08903 11.5674 2.22968 11.4267C2.37033 11.286 2.5611 11.207 2.76001 11.207H6.39001C6.4885 11.207 6.58603 11.2264 6.67702 11.2641C6.76802 11.3018 6.8507 11.3571 6.92034 11.4267C6.98998 11.4963 7.04523 11.579 7.08292 11.67C7.12061 11.761 7.14001 11.8585 7.14001 11.957C7.14001 12.0555 7.12061 12.153 7.08292 12.244C7.04523 12.335 6.98998 12.4177 6.92034 12.4874C6.8507 12.557 6.76802 12.6122 6.67702 12.6499C6.58603 12.6876 6.4885 12.707 6.39001 12.707Z" fill="white"/>
<path d="M13.4301 12.7383H10.5701C10.3712 12.7383 10.1804 12.6593 10.0397 12.5186C9.89909 12.378 9.82007 12.1872 9.82007 11.9883C9.82007 11.7894 9.89909 11.5986 10.0397 11.458C10.1804 11.3173 10.3712 11.2383 10.5701 11.2383H13.4301C13.629 11.2383 13.8197 11.3173 13.9604 11.458C14.1011 11.5986 14.1801 11.7894 14.1801 11.9883C14.1801 12.1872 14.1011 12.378 13.9604 12.5186C13.8197 12.6593 13.629 12.7383 13.4301 12.7383Z" fill="white"/>
<path d="M12 14.1373C11.8011 14.1373 11.6103 14.0583 11.4697 13.9177C11.329 13.777 11.25 13.5863 11.25 13.3873V10.5273C11.25 10.3284 11.329 10.1377 11.4697 9.99701C11.6103 9.85636 11.8011 9.77734 12 9.77734C12.1989 9.77734 12.3897 9.85636 12.5303 9.99701C12.671 10.1377 12.75 10.3284 12.75 10.5273V13.3873C12.75 13.5863 12.671 13.777 12.5303 13.9177C12.3897 14.0583 12.1989 14.1373 12 14.1373Z" fill="white"/>
</svg>
