<svg width="20" height="20" viewBox="0 0 20 20" fill="none" xmlns="http://www.w3.org/2000/svg">
<path d="M19.5807 17.9688C19.7974 18.1486 19.9408 18.3969 19.9853 18.6694C20.0298 18.942 19.9724 19.2209 19.8234 19.4563C19.7353 19.5958 19.6171 19.7153 19.4767 19.8066C19.3363 19.8979 19.1771 19.9588 19.01 19.9852C18.843 20.0115 18.672 20.0027 18.5088 19.9593C18.3456 19.9159 18.1941 19.8389 18.0646 19.7337C17.9803 19.6667 18.3411 20.0253 18.2619 19.9488L14.3709 16.0087C13.7862 16.3052 13.266 16.6161 12.7111 16.8409C11.5404 17.3503 10.2682 17.6058 8.98418 17.5892C7.70016 17.5727 6.43549 17.2846 5.27927 16.7452C4.05636 16.2143 2.9747 15.4215 2.11628 14.4271C1.25785 13.4327 0.645189 12.2626 0.324732 11.0057C-0.000522733 9.89021 -0.0825905 8.72176 0.0837035 7.57413C0.249997 6.4265 0.661045 5.32464 1.29087 4.33817C1.92266 3.28109 2.77905 2.36509 3.80377 1.65037C4.82848 0.935648 5.99831 0.438402 7.23632 0.191331C7.65746 0.100454 8.08849 0.0621788 8.51458 0H9.70367C10.1644 0.0717448 10.6351 0.110015 11.086 0.21524C12.4279 0.487175 13.6857 1.0571 14.7598 1.87983C15.834 2.70256 16.6948 3.7555 17.2742 4.95519C18.7903 8.01152 18.4782 10.977 16.5707 13.8037C16.5013 13.9089 16.4121 14.0046 16.3328 14.105L16.0802 14.4255L19.5807 17.9688ZM9.11904 2.30061C7.33842 2.30314 5.63134 2.98646 4.37133 4.20105C3.11131 5.41565 2.40096 7.06263 2.39573 8.78158C2.39572 10.5009 3.10187 12.1501 4.35938 13.3677C5.61689 14.5852 7.32316 15.2718 9.10418 15.2769C10.8891 15.2769 12.6009 14.5927 13.8635 13.3747C15.1261 12.1568 15.8361 10.5047 15.8374 8.78158C15.8335 7.06307 15.1242 5.41607 13.865 4.20134C12.6058 2.98661 10.8992 2.30314 9.11904 2.30061Z" fill="white"/>
</svg>
