<svg width="24" height="24" viewBox="0 0 24 24" fill="none" xmlns="http://www.w3.org/2000/svg">
<path d="M11.9999 16.0898C10.4723 16.0898 9.00721 15.4829 7.927 14.4027C6.84679 13.3225 6.23994 11.8574 6.23994 10.3298V3.64978C6.22471 3.43338 6.22471 3.21618 6.23994 2.99978C6.25241 2.90195 6.28404 2.80753 6.333 2.72191C6.38197 2.6363 6.44732 2.56117 6.52532 2.50081C6.60332 2.44045 6.69244 2.39605 6.78761 2.37014C6.88277 2.34422 6.9821 2.33731 7.07994 2.34978C7.17777 2.36226 7.27219 2.39388 7.3578 2.44285C7.44342 2.49181 7.51855 2.55716 7.57891 2.63516C7.63926 2.71316 7.68367 2.80229 7.70958 2.89745C7.7355 2.99261 7.74241 3.09195 7.72994 3.18978C7.71933 3.34293 7.71933 3.49663 7.72994 3.64978V10.3298C7.72994 11.4596 8.17876 12.5432 8.97766 13.3421C9.77657 14.141 10.8601 14.5898 11.9899 14.5898C13.1198 14.5898 14.2033 14.141 15.0022 13.3421C15.8011 12.5432 16.2499 11.4596 16.2499 10.3298V3.64978C16.2605 3.49663 16.2605 3.34293 16.2499 3.18978C16.2545 3.01088 16.3229 2.8395 16.4428 2.70661C16.5626 2.57372 16.7261 2.48807 16.9036 2.46513C17.081 2.44219 17.2609 2.48347 17.4106 2.58152C17.5603 2.67957 17.67 2.82792 17.7199 2.99978C17.7352 3.21618 17.7352 3.43338 17.7199 3.64978V10.3298C17.72 11.8505 17.1186 13.3096 16.047 14.3886C14.9755 15.4677 13.5206 16.0792 11.9999 16.0898Z" fill="white"/>
<path d="M17.55 10.0001C17.4125 9.99895 17.2778 9.96096 17.16 9.89014L16.62 9.57014C16.4584 9.46698 16.3425 9.30586 16.296 9.11989C16.2495 8.93391 16.2759 8.73719 16.37 8.57014C16.4698 8.40493 16.6303 8.28528 16.8171 8.23671C17.0039 8.18814 17.2023 8.21449 17.37 8.31014L17.72 8.52014C20.39 8.32014 21 5.28014 21.2 3.84014H2.79997C2.93997 5.29014 3.57997 8.32014 6.24997 8.46014L6.59997 8.25014C6.76764 8.15449 6.96604 8.12814 7.15286 8.17671C7.33968 8.22528 7.50013 8.34493 7.59997 8.51014C7.69399 8.67719 7.72048 8.87391 7.67398 9.05989C7.62749 9.24586 7.51155 9.40698 7.34997 9.51014L6.80997 9.83014C6.69212 9.90096 6.55746 9.93895 6.41997 9.94014C2.30997 9.94014 1.21997 5.44014 1.21997 3.06014C1.23033 2.86208 1.31771 2.67592 1.46344 2.54139C1.60917 2.40687 1.80172 2.33465 1.99997 2.34014H22C22.1981 2.34273 22.3873 2.42257 22.5274 2.56267C22.6675 2.70276 22.7474 2.89203 22.75 3.09014C22.75 5.47014 21.66 10.0001 17.55 10.0001Z" fill="white"/>
<path d="M12 21.6598C11.8019 21.6573 11.6126 21.5774 11.4725 21.4373C11.3324 21.2972 11.2526 21.108 11.25 20.9098V15.3398C11.25 15.1409 11.329 14.9502 11.4697 14.8095C11.6103 14.6689 11.8011 14.5898 12 14.5898C12.1989 14.5898 12.3897 14.6689 12.5303 14.8095C12.671 14.9502 12.75 15.1409 12.75 15.3398V20.9098C12.7474 21.108 12.6676 21.2972 12.5275 21.4373C12.3874 21.5774 12.1981 21.6573 12 21.6598Z" fill="white"/>
<path d="M17.5699 21.6602H7.56995C7.37103 21.6602 7.18027 21.5811 7.03962 21.4405C6.89896 21.2998 6.81995 21.1091 6.81995 20.9102C6.81995 20.7112 6.89896 20.5205 7.03962 20.3798C7.18027 20.2392 7.37103 20.1602 7.56995 20.1602H17.5699C17.7689 20.1602 17.9596 20.2392 18.1003 20.3798C18.2409 20.5205 18.3199 20.7112 18.3199 20.9102C18.3199 21.1091 18.2409 21.2998 18.1003 21.4405C17.9596 21.5811 17.7689 21.6602 17.5699 21.6602Z" fill="white"/>
</svg>
