<svg width="20" height="20" viewBox="0 0 20 20" fill="none" xmlns="http://www.w3.org/2000/svg">
<path d="M10 20C8.02219 20 6.08879 19.4135 4.4443 18.3147C2.79981 17.2159 1.51809 15.6541 0.761209 13.8268C0.0043328 11.9996 -0.1937 9.98891 0.192152 8.0491C0.578004 6.10929 1.53041 4.32746 2.92894 2.92894C4.32746 1.53041 6.10929 0.578004 8.0491 0.192152C9.98891 -0.1937 11.9996 0.0043328 13.8268 0.761209C15.6541 1.51809 17.2159 2.79981 18.3147 4.4443C19.4135 6.08879 20 8.02219 20 10C19.9973 12.6513 18.9428 15.1933 17.0681 17.0681C15.1933 18.9428 12.6513 19.9973 10 20ZM10 1.53847C8.32647 1.53847 6.69052 2.03473 5.29902 2.96449C3.90753 3.89426 2.823 5.21577 2.18256 6.76191C1.54213 8.30806 1.37456 10.0094 1.70105 11.6508C2.02754 13.2921 2.83343 14.7998 4.01679 15.9832C5.20016 17.1666 6.70786 17.9725 8.34924 18.299C9.99062 18.6254 11.6919 18.4579 13.2381 17.8174C14.7842 17.177 16.1057 16.0925 17.0355 14.701C17.9653 13.3095 18.4615 11.6735 18.4615 10C18.4588 7.7567 17.5665 5.60605 15.9802 4.01979C14.394 2.43353 12.2433 1.54118 10 1.53847Z" fill="white"/>
<path d="M6.01953 14.4499C5.82967 14.448 5.6474 14.3751 5.5086 14.2455C5.3698 14.116 5.28451 13.9392 5.26953 13.7499V10.3799C5.26953 10.181 5.34855 9.9902 5.4892 9.84955C5.62985 9.7089 5.82062 9.62988 6.01953 9.62988C6.21844 9.62988 6.40921 9.7089 6.54986 9.84955C6.69051 9.9902 6.76953 10.181 6.76953 10.3799V13.7499C6.75683 13.94 6.67224 14.1182 6.53294 14.2482C6.39364 14.3782 6.21008 14.4503 6.01953 14.4499Z" fill="white"/>
<path d="M9.75 14.4498C9.55189 14.4472 9.36263 14.3674 9.22253 14.2273C9.08244 14.0872 9.00259 13.8979 9 13.6998V5.7998C9 5.60089 9.07902 5.41013 9.21967 5.26947C9.36032 5.12882 9.55109 5.0498 9.75 5.0498C9.94891 5.0498 10.1397 5.12882 10.2803 5.26947C10.421 5.41013 10.5 5.60089 10.5 5.7998V13.7498C10.485 13.9391 10.3997 14.1159 10.2609 14.2454C10.1221 14.375 9.93986 14.4479 9.75 14.4498Z" fill="white"/>
<path d="M13.48 14.4496C13.2929 14.445 13.1143 14.3706 12.9793 14.2411C12.8442 14.1116 12.7624 13.9363 12.75 13.7496V8.55957C12.75 8.36066 12.829 8.16989 12.9697 8.02924C13.1103 7.88859 13.3011 7.80957 13.5 7.80957C13.6989 7.80957 13.8897 7.88859 14.0303 8.02924C14.171 8.16989 14.25 8.36066 14.25 8.55957V13.7496C14.2348 13.9423 14.1466 14.122 14.0036 14.252C13.8605 14.3821 13.6733 14.4527 13.48 14.4496Z" fill="white"/>
</svg>
