<svg width="15" height="15" viewBox="0 0 15 15" fill="none" xmlns="http://www.w3.org/2000/svg">
<path d="M6.03516 7.10449C5.58691 7.10742 5.22656 7.47949 5.22656 7.94238C5.22656 8.40234 5.58984 8.77734 6.03223 8.77734C6.47754 8.77734 6.83789 8.40234 6.83789 7.93945C6.83789 7.47949 6.48047 7.10449 6.03516 7.10449Z" fill="white"/>
<path d="M7.5 0C3.35742 0 0 3.35742 0 7.5C0 11.6426 3.35742 15 7.5 15C11.6426 15 15 11.6426 15 7.5C15 3.35742 11.6426 0 7.5 0ZM8.79199 4.34473H8.80371L8.7832 4.35352L8.79199 4.34473ZM9.65332 10.6113C9.65332 10.6113 9.35742 10.2773 9.14941 9.9873C10.1689 9.69434 10.5498 9.1084 10.5498 9.1084C8.56641 10.3564 6.8291 10.1631 4.74902 9.31934C4.72852 9.31934 4.71973 9.31055 4.71094 9.30176V9.29883C4.70215 9.29004 4.69336 9.28125 4.67285 9.28125H4.63477C4.50586 9.19629 4.4209 9.15527 4.4209 9.15527C4.4209 9.15527 4.80176 9.74121 5.78027 10.0342C5.52246 10.3271 5.26758 10.6611 5.26758 10.6611C3.52734 10.6201 2.8916 9.5332 2.8916 9.5332C2.8916 7.11035 4.03711 5.14453 4.03711 5.14453C5.18262 4.30957 6.24316 4.35059 6.24316 4.35059L6.32812 4.43555C4.9248 4.76953 4.29199 5.39648 4.29199 5.39648C4.35645 5.38184 7.18652 3.75 10.6172 5.4375C10.6172 5.4375 9.98145 4.85156 8.66602 4.47656L8.7832 4.3623C8.96484 4.3623 9.92871 4.39746 10.957 5.15039C10.957 5.15039 12.1084 7.11914 12.1084 9.53906C12.0703 9.48633 11.3936 10.5732 9.65332 10.6113Z" fill="white"/>
<path d="M8.91797 7.10449C8.47559 7.10742 8.1123 7.47949 8.1123 7.94238C8.1123 8.40234 8.47559 8.77734 8.91797 8.77734C9.36328 8.77734 9.72363 8.40234 9.72363 7.93945C9.72363 7.47949 9.36621 7.10449 8.91797 7.10449Z" fill="white"/>
</svg>
