<?xml version="1.0" encoding="utf-8"?>
<!-- Generator: Adobe Illustrator 25.3.1, SVG Export Plug-In . SVG Version: 6.00 Build 0)  -->
<svg version="1.1"
	 id="Layer_1" inkscape:version="0.92.2 (5c3e80d, 2017-08-06)" sodipodi:docname="discordapp-ar21.svg" xmlns:cc="http://creativecommons.org/ns#" xmlns:dc="http://purl.org/dc/elements/1.1/" xmlns:inkscape="http://www.inkscape.org/namespaces/inkscape" xmlns:rdf="http://www.w3.org/1999/02/22-rdf-syntax-ns#" xmlns:sodipodi="http://sodipodi.sourceforge.net/DTD/sodipodi-0.dtd" xmlns:svg="http://www.w3.org/2000/svg"
	 xmlns="http://www.w3.org/2000/svg" xmlns:xlink="http://www.w3.org/1999/xlink" x="0px" y="0px" viewBox="0 0 120 60"
	 style="enable-background:new 0 0 120 60;" xml:space="preserve">
<style type="text/css">
	.st0{fill:#7289DA;}
</style>
<sodipodi:namedview  bordercolor="#666666" borderopacity="1" gridtolerance="10" guidetolerance="10" id="namedview9" inkscape:current-layer="Layer_1" inkscape:cx="78.24959" inkscape:cy="25.146066" inkscape:pageopacity="0" inkscape:pageshadow="2" inkscape:window-height="1001" inkscape:window-maximized="1" inkscape:window-width="1920" inkscape:window-x="-9" inkscape:window-y="-9" inkscape:zoom="4.794184" objecttolerance="10" pagecolor="#ffffff" showgrid="false">
	</sodipodi:namedview>
<g id="g881" transform="translate(-1.0313211)">
	<g id="g871" transform="matrix(1.0979811,0,0,1.0979811,0.39505897,-5.689398)">
		<path id="path4" inkscape:connector-curvature="0" class="st0" d="M20.5,30.2c-0.8,0-1.5,0.7-1.5,1.6s0.7,1.6,1.5,1.6
			c0.8,0,1.5-0.7,1.5-1.6C22,30.9,21.3,30.2,20.5,30.2z M15.2,30.2c-0.8,0-1.5,0.7-1.5,1.6s0.7,1.6,1.5,1.6c0.8,0,1.5-0.7,1.5-1.6
			C16.7,30.9,16,30.2,15.2,30.2z"/>
		
			<path id="path6" inkscape:connector-curvature="0" sodipodi:nodetypes="sssssccccccsccccccccccccccccccccccccccccc" class="st0" d="
			M27.6,18H8c-1.6,0-3,1.3-3,3v19.5c0,1.6,1.3,3,3,3h16.5l-0.8-2.7l1.9,1.7l1.8,1.6l3.2,2.7V21C30.6,19.4,29.2,18,27.6,18z M22,36.9
			c0,0-0.5-0.6-1-1.2c1.9-0.5,2.6-1.7,2.6-1.7c-0.6,0.4-1.2,0.7-1.7,0.9c-0.7,0.3-1.4,0.5-2.1,0.6c-1.4,0.3-2.7,0.2-3.8,0
			c-0.8-0.2-1.5-0.4-2.1-0.6c-0.3-0.1-0.7-0.3-1.1-0.5c0,0-0.1,0-0.1-0.1c0,0,0,0-0.1,0c-0.3-0.1-0.4-0.2-0.4-0.2s0.7,1.2,2.6,1.7
			c-0.4,0.6-1,1.2-1,1.2c-3.2-0.1-4.4-2.2-4.4-2.2c0-4.7,2.1-8.4,2.1-8.4c2.1-1.6,4.1-1.5,4.1-1.5l0.1,0.2c-2.6,0.7-3.8,1.9-3.8,1.9
			s0.3-0.2,0.9-0.4c1.6-0.7,2.8-0.9,3.3-0.9c0.1,0,0.2,0,0.2,0c0.9-0.1,1.9-0.1,2.9,0c1.4,0.2,2.9,0.6,4.4,1.4c0,0-1.2-1.1-3.6-1.8
			l0.2-0.2c0,0,2,0,4.1,1.5c0,0,2.1,3.8,2.1,8.4C26.4,34.7,25.2,36.8,22,36.9L22,36.9z"/>
	</g>
	<g id="g874" transform="matrix(1.0813655,0,0,1.0813655,-63.131886,42.33966)">
		
			<path id="path6-8" inkscape:connector-curvature="0" sodipodi:nodetypes="sccccsssscccscsssccssssccsccccssccccscccccccsccccsssscccssssssssssssssssscscccccccccsccss" class="st0" d="
			M98.9-17.9H94v5.4l3.2,2.9v-5.3H99c1.1,0,1.6,0.5,1.6,1.4v4c0,0.8-0.5,1.4-1.6,1.4h-5v3.1h4.8c2.6,0,5-1.3,5-4.3v-4.3
			C103.9-16.6,101.5-17.9,98.9-17.9z M124.2-9.2v-4.5c0-1.6,2.9-2,3.8-0.4l2.7-1.1c-1.1-2.3-3-3-4.6-3c-2.6,0-5.2,1.5-5.2,4.4v4.5
			c0,2.9,2.6,4.4,5.1,4.4c1.6,0,3.6-0.8,4.7-2.9L127.9-9C127.2-7.2,124.2-7.6,124.2-9.2z M115.4-13c-1-0.2-1.7-0.6-1.7-1.2
			c0.1-1.5,2.4-1.6,3.7-0.1l2.1-1.6c-1.3-1.6-2.9-2.1-4.4-2.1c-2.4,0-4.7,1.3-4.7,3.9c0,2.5,1.9,3.8,4,4.1c1.1,0.1,2.2,0.6,2.2,1.3
			c-0.1,1.4-2.9,1.3-4.2-0.3l-2.1,1.9c1.2,1.6,2.9,2.3,4.4,2.3c2.4,0,5-1.4,5.1-3.9C120-11.8,117.7-12.6,115.4-13z M105.6-4.9h3.3
			v-13h-3.3V-4.9z M160.7-17.9h-4.8v5.4l3.2,2.9v-5.3h1.7c1.1,0,1.6,0.5,1.6,1.4v4c0,0.8-0.5,1.4-1.6,1.4h-5v3.1h4.9
			c2.6,0,5-1.3,5-4.3v-4.3C165.8-16.6,163.3-17.9,160.7-17.9z M137-18.1c-2.7,0-5.4,1.5-5.4,4.4v4.4c0,3,2.7,4.4,5.4,4.4
			c2.7,0,5.4-1.5,5.4-4.4v-4.4C142.4-16.6,139.7-18.1,137-18.1z M139.1-9.2c0,0.9-1.1,1.4-2.1,1.4c-1.1,0-2.1-0.5-2.1-1.4v-4.4
			c0-0.9,1-1.5,2-1.5c1.1,0,2.1,0.5,2.1,1.5L139.1-9.2z M154.1-13.6c-0.1-3-2.1-4.3-4.8-4.3h-5.2v13h3.3V-9h0.6l3,4.1h4.1l-3.5-4.4
			C153.1-9.9,154.1-11.2,154.1-13.6L154.1-13.6z M149.3-11.9h-1.9v-3h1.9C151.4-14.8,151.4-11.9,149.3-11.9z"/>
	</g>
</g>
</svg>
