<svg width="20" height="12" viewBox="0 0 20 12" fill="none" xmlns="http://www.w3.org/2000/svg">
<path d="M19.8793 5.52746C19.6468 5.09721 18.974 3.97676 17.7518 2.86689C16.8362 2.0355 15.7959 1.3725 14.6597 0.896229C13.2408 0.301543 11.673 0 10 0C8.33646 0 6.77678 0.298157 5.36436 0.8862C4.23113 1.35797 3.19262 2.0154 2.27762 2.84023C1.0441 3.95233 0.358889 5.08946 0.121549 5.52677C-0.0402327 5.82484 -0.0405159 6.17421 0.1207 6.4725C0.353226 6.90274 1.02603 8.0232 2.24826 9.13311C3.16374 9.96446 4.20409 10.6275 5.34033 11.1038C6.75923 11.6985 8.32702 12 10 12C11.6636 12 13.2232 11.7018 14.6357 11.1138C15.7689 10.642 16.8074 9.9846 17.7224 9.15977C18.9559 8.04767 19.6411 6.91054 19.8785 6.47323C20.0402 6.17511 20.0405 5.82579 19.8793 5.52746ZM10 10.7143C7.13286 10.7143 4.80864 8.60366 4.80864 6C4.80864 3.39634 7.13286 1.28571 10 1.28571C12.8672 1.28571 15.1914 3.39639 15.1914 6C15.1914 8.60361 12.8672 10.7143 10 10.7143Z" fill="#C4C4C4"/>
<path d="M10 9.42818C12.0852 9.42818 13.7756 7.89315 13.7756 5.9996C13.7756 4.10606 12.0852 2.57103 10 2.57103C7.91485 2.57103 6.22449 4.10606 6.22449 5.9996C6.22449 7.89315 7.91485 9.42818 10 9.42818Z" fill="#C4C4C4"/>
</svg>
