<svg width="14" height="14" viewBox="0 0 14 14" fill="none" xmlns="http://www.w3.org/2000/svg">
<path d="M8.72482 0.115652C8.36612 0.202391 8.0672 0.37587 7.73839 0.549348C7.55903 0.636087 7.34979 0.751739 7.17044 0.867391C5.88508 1.53239 4.95843 2.54435 4.45027 3.7587C4.30081 4.16348 4.18124 4.56826 4.09157 4.97304C3.91221 4.91522 3.76276 4.8863 3.5834 4.82848C3.34427 4.77065 3.07524 4.68391 2.8361 4.59717C2.53718 4.51044 2.35783 4.655 2.29805 4.82848C1.84967 5.78261 1.61053 6.56326 1.46107 7.37283C1.31161 8.645 1.43118 9.68587 1.87956 10.6111C2.50729 11.8833 3.67308 12.7796 5.10789 13.1265C5.61606 13.2422 6.15411 13.3 6.69217 13.3C7.70849 13.3 8.69493 13.0687 9.44223 12.635C9.71126 12.4904 9.9205 12.3459 10.1297 12.1724C10.6678 11.7098 11.0564 11.2761 11.2955 10.8135C12.0428 9.51239 12.1026 7.86435 11.445 6.50543C11.0863 5.84044 10.5482 5.32 10.0401 4.85739C9.32266 4.2213 8.96396 3.44065 8.90417 2.48652C8.87428 1.995 8.96396 1.47457 9.02374 0.983043C9.05363 0.751739 9.08352 0.549348 9.11342 0.318044L9.14331 0L8.93406 0.0289131C8.84439 0.0867392 8.7846 0.115652 8.72482 0.115652ZM8.21666 11.6809C7.79817 11.8543 7.34979 11.9122 6.84163 11.9122C6.5726 11.9122 6.30357 11.8833 6.03454 11.8543C5.76552 11.8254 5.4367 11.7676 5.25735 11.7387C4.65951 11.5652 4.24103 11.3628 3.88232 11.0448C3.04535 10.2641 2.68664 9.33891 2.77632 8.18239C2.8361 7.45957 2.98556 6.79457 3.25459 6.10065C3.82254 6.24522 4.42038 6.4187 5.01822 6.59217L5.40681 6.70783V5.89826C5.40681 5.34891 5.49649 4.82848 5.70573 4.30804C6.06444 3.38283 6.69217 2.66 7.52914 2.16848C7.46936 3.67196 8.03731 4.94413 9.23298 5.92717C9.62158 6.27413 9.98028 6.62109 10.1895 7.02587C10.8173 8.2113 10.608 9.71478 9.65147 10.7267C9.62158 10.7846 9.5319 10.8424 9.47212 10.9002C9.44223 10.9291 9.38244 10.987 9.35255 10.987C9.1732 11.1315 8.99385 11.2761 8.8145 11.3628C8.66504 11.5074 8.45579 11.5941 8.21666 11.6809Z" fill="#F6693F"/>
</svg>
