<svg width="215" height="77" viewBox="0 0 215 77" fill="none" xmlns="http://www.w3.org/2000/svg">
<path d="M77.8465 49.4993C83.9917 49.4993 87.8978 46.3445 87.8978 41.3285C87.8978 37.4567 85.6374 35.2233 80.11 34.0426L77.2469 33.4354C73.8363 32.697 72.469 31.4064 72.469 29.469C72.469 27.0343 74.7478 25.5209 77.8312 25.5209C80.4587 25.5209 82.4653 26.5735 83.3585 29.0266C83.7776 29.9846 84.3802 30.4454 85.3651 30.4454C86.4235 30.4454 87.1698 29.7436 87.1698 28.6757C87.1698 28.2882 87.1148 27.974 87.023 27.7177C86.0014 24.1571 82.4256 22 77.8862 22C72.2855 22 68.3273 25.1365 68.3273 29.6917C68.3273 33.5269 70.7163 35.9983 75.9683 37.1241L78.8498 37.7313C82.3705 38.5063 83.7562 39.7969 83.7562 41.8624C83.7562 44.2423 81.3672 45.9753 78.03 45.9753C74.9834 45.9753 72.5944 44.8128 71.7746 42.3231C71.3739 41.3285 70.7713 40.9044 69.8414 40.9044C68.728 40.9044 68 41.6794 68 42.8784C68 43.3208 68.0918 43.7633 68.2202 44.169C69.2419 47.2689 72.7443 49.4993 77.8495 49.4993H77.8465Z" fill="white"/>
<path d="M92.2392 44.4072C92.2392 47.617 93.8818 49.2218 97.1089 49.2218H97.3108C99.244 49.2218 100.156 48.6147 100.156 47.4156C100.156 46.4759 99.5896 46.0151 98.4579 45.9023L98.1489 45.884C96.7265 45.7741 96.1974 45.0724 96.1974 43.5224V32.8071H98.4426C99.4642 32.8071 100.085 32.2182 100.085 31.2388C100.085 30.2594 99.4642 29.6523 98.4426 29.6523H96.1974V26.7751C96.1974 25.5028 95.4143 24.6546 94.2275 24.6546C93.0406 24.6546 92.2392 25.5028 92.2392 26.7751V29.6523H90.8535C89.8319 29.6523 89.2109 30.2411 89.2109 31.2388C89.2109 32.2365 89.8319 32.8071 90.8535 32.8071H92.2392V44.4072Z" fill="white"/>
<path d="M105.058 49.4029C106.226 49.4029 107.028 48.5913 107.028 47.3007V37.3969C107.028 34.9805 108.123 33.1559 110.821 33.1376C111.64 33.1376 112.225 32.9729 112.625 32.622C113.008 32.3077 113.21 31.847 113.21 31.2216C113.21 30.5961 113.044 30.114 112.68 29.8211C112.353 29.5069 111.824 29.3421 111.13 29.3421C109.215 29.3421 107.447 30.8005 106.918 32.9759H106.826V31.3161C106.826 30.0988 106.061 29.3055 104.966 29.3055C103.871 29.3055 103.088 30.0988 103.088 31.3161V47.3068C103.088 48.5974 103.874 49.409 105.058 49.409V49.4029Z" fill="white"/>
<path d="M120.565 49.3888C123.064 49.3888 125.508 48.0249 126.622 45.8648H126.713V47.5063C126.75 48.687 127.497 49.4071 128.592 49.4071C129.687 49.4071 130.488 48.6504 130.488 47.3964V35.6864C130.488 31.7963 127.515 29.3036 122.865 29.3036C119.418 29.3036 116.518 30.704 115.515 32.9008C115.276 33.3432 115.169 33.7856 115.169 34.1914C115.169 35.186 115.879 35.8512 116.864 35.8512C117.558 35.8512 118.069 35.5918 118.47 35.003C119.565 33.2334 120.822 32.5499 122.719 32.5499C125.126 32.5499 126.567 33.8405 126.567 35.9976V37.4927L121.296 37.8069C116.754 38.0663 114.166 40.1501 114.166 43.5429C114.166 46.9357 116.812 49.3888 120.568 49.3888H120.565ZM121.642 46.234C119.543 46.234 118.139 45.1264 118.139 43.43C118.139 41.7336 119.47 40.7176 121.825 40.5529L126.567 40.2569V41.7885C126.567 44.3148 124.395 46.234 121.642 46.234Z" fill="white"/>
<path d="M135.468 44.4072C135.468 47.617 137.11 49.2218 140.337 49.2218H140.539C142.472 49.2218 143.384 48.6147 143.384 47.4156C143.384 46.4759 142.818 46.0151 141.686 45.9023L141.377 45.884C139.955 45.7741 139.426 45.0724 139.426 43.5224V32.8071H141.671C142.693 32.8071 143.311 32.2182 143.311 31.2388C143.311 30.2594 142.69 29.6523 141.671 29.6523H139.426V26.7751C139.426 25.5028 138.643 24.6546 137.456 24.6546C136.269 24.6546 135.468 25.5028 135.468 26.7751V29.6523H134.082C133.06 29.6523 132.439 30.2411 132.439 31.2388C132.439 32.2365 133.06 32.8071 134.082 32.8071H135.468V44.4072Z" fill="white"/>
<path d="M153.395 49.4209C158.139 49.4209 161.33 47.0227 161.33 43.4255C161.33 40.5484 159.779 39.0899 155.747 38.1502L152.774 37.4485C150.749 36.9695 149.819 36.1213 149.819 34.9039C149.819 33.3906 151.278 32.341 153.395 32.341C155.328 32.341 156.497 33.116 157.353 34.5896C157.736 35.2181 158.301 35.4378 158.941 35.4378C159.926 35.4378 160.473 34.849 160.473 33.9611C160.473 33.778 160.436 33.5919 160.4 33.3722C159.852 31.0839 157.008 29.296 153.542 29.296C148.981 29.296 145.974 31.6209 145.974 35.1236C145.974 37.8909 147.797 39.7337 151.52 40.6185L154.548 41.3386C156.61 41.8359 157.356 42.5193 157.356 43.7916C157.356 45.3965 155.842 46.3728 153.6 46.3728C151.358 46.3728 150.171 45.6711 149.186 44.1028C148.694 43.3645 148.128 43.0502 147.473 43.0502C146.488 43.0502 145.775 43.6391 145.775 44.6368C145.775 44.8961 145.812 45.1707 145.941 45.4667C146.852 47.8465 149.626 49.4148 153.401 49.4148L153.395 49.4209Z" fill="white"/>
<path d="M168.535 49.3004C169.422 49.3004 170.129 48.5864 170.129 47.6894C170.129 46.7924 169.422 46.0785 168.535 46.0785C167.648 46.0785 166.941 46.7924 166.941 47.6894C166.941 48.5864 167.645 49.3004 168.535 49.3004Z" fill="white"/>
<path d="M177.79 54.0369C181.596 54.0735 183.92 52.0079 183.92 48.8104V37.3628C183.92 36.5024 183.361 35.999 182.608 35.999C181.856 35.999 181.284 36.5024 181.284 37.3628V38.4093H181.235C180.458 36.9448 179.045 36.0234 177.234 36.0234C173.927 36.0234 171.859 38.5436 171.859 42.5893C171.859 46.635 173.952 49.1308 177.173 49.1308C178.996 49.1308 180.504 48.2093 181.223 46.8058H181.284V48.8592C181.284 50.6654 179.984 51.895 177.842 51.8706C176.591 51.8462 175.692 51.3672 174.646 50.2596C174.294 49.9027 174.037 49.7684 173.637 49.7684C172.967 49.7684 172.517 50.2108 172.517 50.8271C172.517 51.1353 172.59 51.4038 172.759 51.6998C173.634 53.1002 175.472 54.0125 177.794 54.0369H177.79ZM177.876 46.9676C175.857 46.9676 174.545 45.3078 174.545 42.6015C174.545 39.8952 175.857 38.211 177.876 38.211C179.895 38.211 181.293 39.9562 181.293 42.6137C181.293 45.2712 179.932 46.9676 177.876 46.9676Z" fill="white"/>
<path d="M191.874 54.0369C195.679 54.0735 198.001 52.0079 198.001 48.8104V37.3628C198.001 36.5024 197.441 35.999 196.688 35.999C195.936 35.999 195.364 36.5024 195.364 37.3628V38.4093H195.315C194.538 36.9448 193.125 36.0234 191.314 36.0234C188.007 36.0234 185.939 38.5436 185.939 42.5893C185.939 46.635 188.032 49.1308 191.253 49.1308C193.076 49.1308 194.584 48.2093 195.303 46.8058H195.364V48.8592C195.364 50.6654 194.061 51.895 191.923 51.8706C190.668 51.8462 189.769 51.3672 188.723 50.2596C188.371 49.9027 188.114 49.7684 187.714 49.7684C187.044 49.7684 186.594 50.2108 186.594 50.8271C186.594 51.1353 186.667 51.4038 186.839 51.6998C187.714 53.1002 189.549 54.0125 191.874 54.0369ZM191.959 46.9676C189.94 46.9676 188.628 45.3078 188.628 42.6015C188.628 39.8952 189.94 38.211 191.959 38.211C193.978 38.211 195.376 39.9562 195.376 42.6137C195.376 45.2712 194.015 46.9676 191.959 46.9676Z" fill="white"/>
<path d="M51.9073 41.3813L35.264 62.4026C34.6725 63.1505 33.5022 63.1468 32.9035 62.3953L16.1145 41.2633C14.6367 39.4026 14.6276 36.8231 16.0927 34.9733L32.7342 13.952C33.3257 13.2041 34.4959 13.2077 35.0947 13.9592L51.8855 35.0894C53.3633 36.9501 53.3724 39.5297 51.9073 41.3795V41.3813Z" fill="url(#paint0_linear_6231_25011)"/>
<g filter="url(#filter0_d_6231_25011)">
<path d="M20.8471 37.6585C20.8234 36.8634 21.1055 36.1137 21.5496 35.4384C22.5433 33.9317 23.628 32.4903 24.7254 31.0562C25.5826 29.9344 26.4379 28.8107 27.3115 27.7015C29.2279 25.2672 31.1789 22.8583 33.1481 20.4657C33.5485 19.9792 33.9852 19.9701 34.3747 20.4657C35.0809 21.3625 35.7688 22.2719 36.464 23.1796C36.6551 23.4301 36.8735 23.6588 37.0209 23.9438C37.2921 24.4721 37.1865 25.0258 36.7861 25.4632C36.2638 26.0351 35.7761 26.6396 35.2756 27.2314C34.6368 27.9865 33.998 28.7417 33.361 29.5005C32.3437 30.7131 31.319 31.9221 30.3144 33.1474C29.6975 33.9008 29.1915 34.7213 28.944 35.6798C28.8002 36.2371 28.7748 36.8035 28.8366 37.3699C28.9185 38.1214 29.3662 38.6569 29.9359 39.1017C30.5255 39.5627 31.188 39.8877 31.8941 40.1255C32.138 40.2072 32.3873 40.2907 32.5766 40.465C32.9752 40.8298 33.0571 41.3309 32.8168 41.8264C32.6239 42.224 32.3291 42.5544 32.0579 42.8975C30.9459 44.3061 29.7266 45.6168 28.3889 46.8131C27.8975 47.2524 27.3115 47.2234 26.8383 46.7459C25.7846 45.6822 24.8091 44.5476 23.8937 43.3622C23.0219 42.2313 22.172 41.0858 21.4477 39.8496C21.1073 39.2687 20.838 38.3519 20.8471 37.6621V37.6585Z" fill="url(#paint1_linear_6231_25011)"/>
<path d="M47.1524 38.693C47.1761 39.4881 46.894 40.2379 46.4499 40.9132C45.4562 42.4199 44.3715 43.8612 43.2741 45.2953C42.4169 46.4172 41.5615 47.5408 40.688 48.65C38.7716 51.0843 36.8206 53.4932 34.8514 55.8858C34.451 56.3723 34.0142 56.3814 33.6248 55.8858C32.9186 54.9891 32.2307 54.0796 31.5355 53.1719C31.3444 52.9214 31.126 52.6927 30.9786 52.4077C30.7074 51.8794 30.813 51.3258 31.2134 50.8883C31.7357 50.3165 32.2234 49.712 32.7239 49.1202C33.3627 48.365 34.0015 47.6098 34.6385 46.851C35.6558 45.6384 36.6805 44.4294 37.6851 43.2041C38.302 42.4507 38.808 41.6302 39.0555 40.6717C39.1993 40.1144 39.2247 39.548 39.1629 38.9817C39.081 38.2301 38.6333 37.6946 38.0636 37.2499C37.474 36.7888 36.8115 36.4638 36.1054 36.226C35.8615 36.1443 35.6122 36.0608 35.4229 35.8866C35.0243 35.5217 34.9424 35.0207 35.1826 34.5251C35.3756 34.1275 35.6704 33.7971 35.9416 33.4541C37.0535 32.0454 38.2729 30.7347 39.6106 29.5384C40.1019 29.0991 40.688 29.1282 41.1612 29.6056C42.2149 30.6694 43.1904 31.8039 44.1058 32.9893C44.9776 34.1203 45.8275 35.2657 46.5518 36.502C46.8922 37.0829 47.1615 37.9996 47.1524 38.6894V38.693Z" fill="url(#paint2_linear_6231_25011)"/>
</g>
<defs>
<filter id="filter0_d_6231_25011" x="0.845703" y="0.0974121" width="66.3086" height="76.1567" filterUnits="userSpaceOnUse" color-interpolation-filters="sRGB">
<feFlood flood-opacity="0" result="BackgroundImageFix"/>
<feColorMatrix in="SourceAlpha" type="matrix" values="0 0 0 0 0 0 0 0 0 0 0 0 0 0 0 0 0 0 127 0" result="hardAlpha"/>
<feOffset/>
<feGaussianBlur stdDeviation="10"/>
<feColorMatrix type="matrix" values="0 0 0 0 0 0 0 0 0 0 0 0 0 0 0 0 0 0 0.4 0"/>
<feBlend mode="normal" in2="BackgroundImageFix" result="effect1_dropShadow_6231_25011"/>
<feBlend mode="normal" in="SourceGraphic" in2="effect1_dropShadow_6231_25011" result="shape"/>
</filter>
<linearGradient id="paint0_linear_6231_25011" x1="35.3913" y1="23.2228" x2="32.0559" y2="59.2437" gradientUnits="userSpaceOnUse">
<stop stop-color="#B078FF"/>
<stop offset="0.13" stop-color="#A26FFE"/>
<stop offset="0.48" stop-color="#855DFE"/>
<stop offset="0.78" stop-color="#7352FE"/>
<stop offset="1" stop-color="#6D4EFE"/>
</linearGradient>
<linearGradient id="paint1_linear_6231_25011" x1="38.9173" y1="23.9475" x2="23.4752" y2="42.9578" gradientUnits="userSpaceOnUse">
<stop stop-color="#85F8E6"/>
<stop offset="0.02" stop-color="#83F6E6"/>
<stop offset="0.41" stop-color="#66DCED"/>
<stop offset="0.75" stop-color="#54CCF1"/>
<stop offset="1" stop-color="#4EC7F3"/>
</linearGradient>
<linearGradient id="paint2_linear_6231_25011" x1="45.7783" y1="30.3626" x2="29.0753" y2="55.1756" gradientUnits="userSpaceOnUse">
<stop stop-color="#85F8E6"/>
<stop offset="0.02" stop-color="#83F6E6"/>
<stop offset="0.41" stop-color="#66DCED"/>
<stop offset="0.75" stop-color="#54CCF1"/>
<stop offset="1" stop-color="#4EC7F3"/>
</linearGradient>
</defs>
</svg>
