<svg width="184" height="64" viewBox="0 0 184 64" fill="none" xmlns="http://www.w3.org/2000/svg">
<path fill-rule="evenodd" clip-rule="evenodd" d="M46.4995 35.1287L32.7457 52.5002C32.2569 53.1183 31.2899 53.1153 30.7951 52.4942L16.921 35.0312C15.6998 33.4935 15.6923 31.3619 16.903 29.8332L30.6552 12.4617C31.144 11.8436 32.111 11.8466 32.6058 12.4677L46.4814 29.9292C47.7026 31.4669 47.7101 33.5986 46.4995 35.1272V35.1287ZM20.832 32.0523C20.8124 31.3952 21.0455 30.7757 21.4125 30.2176C22.2336 28.9725 23.13 27.7814 24.0369 26.5963L24.2466 26.3218C24.8849 25.4861 25.5234 24.6502 26.174 23.824C27.7577 21.8124 29.37 19.8217 30.9972 17.8445C31.3281 17.4425 31.6891 17.435 32.0109 17.8445C32.456 18.4098 32.8924 18.9812 33.3294 19.5534L33.3298 19.5539L33.3301 19.5543C33.4657 19.7319 33.6014 19.9096 33.7375 20.0872C33.7814 20.1448 33.8271 20.201 33.8728 20.2572L33.8728 20.2573C33.9913 20.403 34.1098 20.5488 34.1977 20.7188C34.4218 21.1553 34.3345 21.6128 34.0037 21.9744C33.6903 22.3174 33.392 22.6747 33.0938 23.0319L33.0934 23.0324C32.981 23.167 32.8686 23.3017 32.7554 23.4355L32.755 23.4359L32.7549 23.436C32.2272 24.0599 31.6994 24.6838 31.1732 25.3107C30.9766 25.545 30.7797 25.7792 30.5827 26.0134L30.5815 26.0149C29.9366 26.7818 29.2912 27.5491 28.6556 28.3244C28.1457 28.947 27.7276 29.6251 27.5231 30.4171C27.4043 30.8777 27.3832 31.3457 27.4344 31.8138C27.502 32.4348 27.872 32.8773 28.3427 33.2449C28.83 33.6259 29.3775 33.8944 29.961 34.091L29.9611 34.091C30.1626 34.1585 30.3686 34.2275 30.525 34.3715C30.8544 34.673 30.922 35.087 30.7235 35.4966C30.5925 35.7665 30.4047 35.9989 30.2176 36.2305L30.2174 36.2308C30.1768 36.281 30.1363 36.3311 30.0964 36.3817C29.1774 37.5458 28.1698 38.6289 27.0644 39.6174C26.6583 39.9805 26.174 39.9565 25.783 39.5619C24.9122 38.6829 24.1061 37.7453 23.3496 36.7657C22.6292 35.8311 21.9268 34.8845 21.3283 33.8629C21.047 33.3829 20.8244 32.6253 20.832 32.0553V32.0523ZM41.9896 34.7418C42.3565 34.1838 42.5896 33.5642 42.5701 32.9072V32.9042C42.5776 32.3341 42.355 31.5766 42.0738 31.0965C41.4752 30.0749 40.7729 29.1283 40.0525 28.1938C39.296 27.2142 38.4898 26.2766 37.619 25.3975C37.228 25.003 36.7437 24.979 36.3377 25.342C35.2323 26.3306 34.2246 27.4137 33.3057 28.5778C33.2657 28.6284 33.2251 28.6786 33.1844 28.7289C32.9973 28.9605 32.8095 29.193 32.6785 29.4629C32.48 29.8724 32.5477 30.2864 32.8771 30.588C33.0334 30.732 33.2395 30.801 33.441 30.8685L33.441 30.8685C34.0246 31.065 34.572 31.3335 35.0593 31.7146C35.53 32.0821 35.9 32.5246 35.9677 33.1457C36.0188 33.6137 35.9978 34.0818 35.879 34.5423C35.6744 35.3344 35.2563 36.0125 34.7465 36.635C34.1108 37.4104 33.4654 38.1778 32.8205 38.9447C32.6231 39.1794 32.4258 39.414 32.2288 39.6488C31.7026 40.2757 31.1748 40.8996 30.647 41.5235L30.6467 41.5239C30.5334 41.6579 30.4208 41.7927 30.3083 41.9275C30.0101 42.2847 29.7118 42.642 29.3984 42.9851C29.0675 43.3466 28.9803 43.8041 29.2044 44.2407C29.2923 44.4107 29.4108 44.5564 29.5293 44.7022C29.5749 44.7584 29.6206 44.8146 29.6646 44.8722C29.8008 45.05 29.9366 45.2279 30.0724 45.4057C30.5094 45.978 30.9459 46.5495 31.3911 47.1149C31.713 47.5245 32.0739 47.517 32.4048 47.1149C34.0321 45.1378 35.6443 43.1471 37.228 41.1354C37.8788 40.3092 38.5173 39.4732 39.1557 38.6374C39.2255 38.5459 39.2953 38.4545 39.3651 38.3632C40.272 37.1781 41.1684 35.987 41.9896 34.7418Z" fill="#6D6F7A"/>
<path d="M71.8772 41.1843C76.7934 41.1843 79.9183 38.6604 79.9183 34.6477C79.9183 31.5502 78.1099 29.7635 73.688 28.8189L71.3975 28.3332C68.669 27.7425 67.5752 26.71 67.5752 25.1601C67.5752 23.2123 69.3983 22.0016 71.8649 22.0016C73.967 22.0016 75.5723 22.8437 76.2868 24.8062C76.6221 25.5726 77.1041 25.9412 77.8921 25.9412C78.7388 25.9412 79.3359 25.3798 79.3359 24.5255C79.3359 24.2155 79.2918 23.9641 79.2184 23.759C78.4011 20.9106 75.5404 19.1849 71.909 19.1849C67.4284 19.1849 64.2618 21.6941 64.2618 25.3383C64.2618 28.4064 66.173 30.3835 70.3747 31.2842L72.6798 31.7699C75.4964 32.3899 76.6049 33.4224 76.6049 35.0748C76.6049 36.9787 74.6938 38.3651 72.024 38.3651C69.5867 38.3651 67.6755 37.4351 67.0197 35.4434C66.6991 34.6477 66.2171 34.3084 65.4731 34.3084C64.5824 34.3084 64 34.9284 64 35.8876C64 36.2416 64.0734 36.5955 64.1762 36.9201C64.9935 39.4 67.7954 41.1843 71.8796 41.1843H71.8772Z" fill="#6D6F7A"/>
<path d="M83.3909 37.1105C83.3909 39.6782 84.705 40.9621 87.2866 40.9621H87.4481C88.9947 40.9621 89.7239 40.4764 89.7239 39.5171C89.7239 38.7654 89.2712 38.3968 88.3658 38.3065L88.1186 38.2918C86.9807 38.204 86.5574 37.6426 86.5574 36.4026V27.8303H88.3536C89.1709 27.8303 89.6676 27.3592 89.6676 26.5757C89.6676 25.7922 89.1709 25.3065 88.3536 25.3065H86.5574V23.0048C86.5574 21.9869 85.9309 21.3084 84.9815 21.3084C84.032 21.3084 83.3909 21.9869 83.3909 23.0048V25.3065H82.2823C81.465 25.3065 80.9683 25.7776 80.9683 26.5757C80.9683 27.3739 81.465 27.8303 82.2823 27.8303H83.3909V37.1105Z" fill="#6D6F7A"/>
<path d="M93.6457 41.1073C94.5805 41.1073 95.2217 40.458 95.2217 39.4255V31.5025C95.2217 29.5693 96.0977 28.1097 98.256 28.0951C98.9119 28.0951 99.3793 27.9633 99.6998 27.6826C100.006 27.4312 100.167 27.0626 100.167 26.5622C100.167 26.0618 100.035 25.6762 99.7439 25.4419C99.482 25.1905 99.0587 25.0586 98.5032 25.0586C96.9713 25.0586 95.5569 26.2254 95.1336 27.9657H95.0602V26.6379C95.0602 25.664 94.4484 25.0294 93.5723 25.0294C92.6963 25.0294 92.0698 25.664 92.0698 26.6379V39.4304C92.0698 40.4629 92.6987 41.1121 93.6457 41.1121V41.1073Z" fill="#6D6F7A"/>
<path d="M106.051 41.0955C108.05 41.0955 110.006 40.0044 110.896 38.2763H110.97V39.5895C110.999 40.5341 111.596 41.1102 112.472 41.1102C113.348 41.1102 113.99 40.5048 113.99 39.5016V30.1336C113.99 27.0215 111.611 25.0274 107.891 25.0274C105.134 25.0274 102.814 26.1477 102.011 27.9051C101.82 28.2591 101.735 28.613 101.735 28.9376C101.735 29.7333 102.302 30.2654 103.09 30.2654C103.646 30.2654 104.054 30.058 104.375 29.5869C105.251 28.1712 106.257 27.6244 107.774 27.6244C109.7 27.6244 110.852 28.6569 110.852 30.3826V31.5786L106.636 31.83C103.002 32.0375 100.932 33.7046 100.932 36.4188C100.932 39.1331 103.049 41.0955 106.054 41.0955H106.051ZM106.913 38.5717C105.234 38.5717 104.111 37.6856 104.111 36.3285C104.111 34.9714 105.175 34.1586 107.059 34.0268L110.852 33.79V35.0153C110.852 37.0364 109.115 38.5717 106.913 38.5717Z" fill="#6D6F7A"/>
<path d="M117.974 37.1104C117.974 39.6782 119.288 40.9621 121.869 40.9621H122.031C123.577 40.9621 124.307 40.4763 124.307 39.5171C124.307 38.7653 123.854 38.3967 122.949 38.3064L122.701 38.2918C121.564 38.2039 121.14 37.6425 121.14 36.4025V27.8303H122.936C123.754 27.8303 124.248 27.3592 124.248 26.5757C124.248 25.7922 123.751 25.3064 122.936 25.3064H121.14V23.0047C121.14 21.9869 120.514 21.3083 119.564 21.3083C118.615 21.3083 117.974 21.9869 117.974 23.0047V25.3064H116.865C116.048 25.3064 115.551 25.7775 115.551 26.5757C115.551 27.3738 116.048 27.8303 116.865 27.8303H117.974V37.1104Z" fill="#6D6F7A"/>
<path d="M132.316 41.1217C136.112 41.1217 138.664 39.2032 138.664 36.3254C138.664 34.0237 137.423 32.857 134.198 32.1052L131.82 31.5438C130.2 31.1606 129.456 30.482 129.456 29.5081C129.456 28.2974 130.623 27.4578 132.316 27.4578C133.863 27.4578 134.798 28.0778 135.483 29.2567C135.789 29.7595 136.242 29.9353 136.753 29.9353C137.541 29.9353 137.979 29.4642 137.979 28.7539C137.979 28.6074 137.95 28.4585 137.92 28.2828C137.482 26.4522 135.206 25.0218 132.434 25.0218C128.785 25.0218 126.38 26.8818 126.38 29.6839C126.38 31.8977 127.838 33.372 130.816 34.0798L133.239 34.6559C134.888 35.0537 135.485 35.6005 135.485 36.6183C135.485 37.9022 134.274 38.6833 132.48 38.6833C130.687 38.6833 129.737 38.1219 128.949 36.8673C128.555 36.2766 128.103 36.0252 127.579 36.0252C126.791 36.0252 126.221 36.4963 126.221 37.2944C126.221 37.5019 126.25 37.7216 126.353 37.9583C127.082 39.8622 129.302 41.1168 132.321 41.1168L132.316 41.1217Z" fill="#6D6F7A"/>
<path d="M144.429 41.0251C145.138 41.0251 145.704 40.4539 145.704 39.7363C145.704 39.0187 145.138 38.4475 144.429 38.4475C143.719 38.4475 143.154 39.0187 143.154 39.7363C143.154 40.4539 143.717 41.0251 144.429 41.0251Z" fill="#6D6F7A"/>
<path d="M151.832 44.8147C154.876 44.844 156.736 43.1916 156.736 40.6335V31.4755C156.736 30.7871 156.288 30.3844 155.686 30.3844C155.084 30.3844 154.627 30.7871 154.627 31.4755V32.3127H154.587C153.966 31.1411 152.835 30.4039 151.387 30.4039C148.741 30.4039 147.087 32.4201 147.087 35.6566C147.087 38.8932 148.761 40.8898 151.338 40.8898C152.796 40.8898 154.003 40.1527 154.578 39.0299H154.627V40.6726C154.627 42.1176 153.587 43.1012 151.874 43.0817C150.873 43.0622 150.153 42.679 149.316 41.7929C149.035 41.5074 148.829 41.4 148.509 41.4C147.973 41.4 147.613 41.7539 147.613 42.2469C147.613 42.4935 147.672 42.7083 147.807 42.945C148.506 44.0654 149.977 44.7952 151.835 44.8147H151.832ZM151.901 39.1593C150.286 39.1593 149.236 37.8314 149.236 35.6664C149.236 33.5014 150.286 32.154 151.901 32.154C153.516 32.154 154.634 33.5502 154.634 35.6762C154.634 37.8022 153.545 39.1593 151.901 39.1593Z" fill="#6D6F7A"/>
<path d="M163.099 44.8147C166.143 44.844 168 43.1916 168 40.6335V31.4755C168 30.7871 167.552 30.3844 166.95 30.3844C166.348 30.3844 165.891 30.7871 165.891 31.4755V32.3127H165.852C165.23 31.1411 164.1 30.4039 162.651 30.4039C160.006 30.4039 158.351 32.4201 158.351 35.6566C158.351 38.8932 160.025 40.8898 162.602 40.8898C164.06 40.8898 165.267 40.1527 165.842 39.0299H165.891V40.6726C165.891 42.1176 164.848 43.1012 163.138 43.0817C162.135 43.0622 161.415 42.679 160.578 41.7929C160.297 41.5074 160.091 41.4 159.771 41.4C159.235 41.4 158.875 41.7539 158.875 42.2469C158.875 42.4935 158.934 42.7083 159.071 42.945C159.771 44.0654 161.239 44.7952 163.099 44.8147ZM163.167 39.1593C161.552 39.1593 160.502 37.8314 160.502 35.6664C160.502 33.5014 161.552 32.154 163.167 32.154C164.782 32.154 165.901 33.5502 165.901 35.6762C165.901 37.8022 164.812 39.1593 163.167 39.1593Z" fill="#6D6F7A"/>
</svg>
