<svg width="24" height="24" viewBox="0 0 24 24" fill="none" xmlns="http://www.w3.org/2000/svg">
<path d="M4.00005 20.7486C3.8979 20.7556 3.79543 20.7412 3.69911 20.7065C3.60279 20.6718 3.51472 20.6175 3.44046 20.547C3.36621 20.4765 3.3074 20.3914 3.26774 20.297C3.22808 20.2026 3.20844 20.101 3.21005 19.9986V5.99864C3.21 5.84713 3.25583 5.69916 3.34151 5.5742C3.42719 5.44925 3.5487 5.35318 3.69005 5.29864L8.80005 3.29864C8.97324 3.22858 9.16687 3.22858 9.34005 3.29864L14.1101 5.15864L19.8101 3.28864C19.9215 3.24992 20.0407 3.2388 20.1574 3.25621C20.274 3.27363 20.3848 3.31907 20.4801 3.38864C20.577 3.45785 20.6558 3.54945 20.7098 3.65565C20.7638 3.76185 20.7913 3.87951 20.7901 3.99864V17.9986C20.7899 18.1554 20.7407 18.3083 20.6492 18.4356C20.5577 18.563 20.4286 18.6585 20.2801 18.7086L14.2801 20.7086C14.112 20.7689 13.9281 20.7689 13.7601 20.7086L9.06005 18.8486L4.23005 20.6986C4.15604 20.7258 4.07865 20.7426 4.00005 20.7486ZM9.10005 17.2886C9.19662 17.2882 9.29213 17.3087 9.38005 17.3486L14.0001 19.1986L19.2701 17.4186V4.99864L14.2701 6.62864C14.1045 6.68355 13.9256 6.68355 13.7601 6.62864L9.06005 4.79864L4.71005 6.46864V18.9086L8.80005 17.3386C8.88307 17.3067 8.97111 17.2898 9.06005 17.2886H9.10005Z" fill="white"/>
<path d="M9.06003 18.79C8.95808 18.7901 8.85717 18.7695 8.76347 18.7293C8.66976 18.6892 8.58523 18.6303 8.51504 18.5564C8.44484 18.4824 8.39046 18.395 8.35521 18.2993C8.31996 18.2036 8.30459 18.1018 8.31003 18V4C8.31003 3.80109 8.38904 3.61032 8.5297 3.46967C8.67035 3.32902 8.86112 3.25 9.06003 3.25C9.25894 3.25 9.4497 3.32902 9.59036 3.46967C9.73101 3.61032 9.81003 3.80109 9.81003 4V18C9.81696 18.1021 9.80262 18.2046 9.76791 18.3009C9.7332 18.3973 9.67889 18.4853 9.60839 18.5596C9.5379 18.6338 9.45277 18.6927 9.35838 18.7323C9.26399 18.772 9.1624 18.7916 9.06003 18.79Z" fill="white"/>
<path d="M14.0901 20.75C13.8912 20.75 13.7004 20.671 13.5598 20.5303C13.4191 20.3897 13.3401 20.1989 13.3401 20V6C13.3401 5.80109 13.4191 5.61032 13.5598 5.46967C13.7004 5.32902 13.8912 5.25 14.0901 5.25C14.289 5.25 14.4798 5.32902 14.6204 5.46967C14.7611 5.61032 14.8401 5.80109 14.8401 6V20C14.8375 20.1981 14.7576 20.3874 14.6176 20.5275C14.4775 20.6676 14.2882 20.7474 14.0901 20.75Z" fill="white"/>
</svg>
