<svg width="24" height="24" viewBox="0 0 24 24" fill="none" xmlns="http://www.w3.org/2000/svg">
<path d="M18.79 11.818C18.6912 11.8202 18.593 11.8018 18.5018 11.7639C18.4105 11.7261 18.3282 11.6695 18.26 11.598L13.05 6.39801C12.9175 6.25584 12.8454 6.06779 12.8488 5.87349C12.8522 5.67919 12.931 5.4938 13.0684 5.35639C13.2058 5.21898 13.3912 5.14026 13.5855 5.13684C13.7798 5.13341 13.9678 5.20553 14.11 5.33801L19.32 10.538C19.4604 10.6786 19.5393 10.8693 19.5393 11.068C19.5393 11.2668 19.4604 11.4574 19.32 11.598C19.2507 11.6681 19.1682 11.7237 19.0772 11.7615C18.9862 11.7993 18.8885 11.8185 18.79 11.818Z" fill="white"/>
<path d="M13.63 11.77C13.5314 11.7704 13.4338 11.7512 13.3428 11.7134C13.2517 11.6757 13.1692 11.6201 13.1 11.55C12.9595 11.4094 12.8806 11.2187 12.8806 11.02C12.8806 10.8212 12.9595 10.6306 13.1 10.49L18.31 5.28998C18.3789 5.21922 18.4613 5.16298 18.5523 5.12459C18.6434 5.08619 18.7412 5.06641 18.84 5.06641C18.9387 5.06641 19.0365 5.08619 19.1276 5.12459C19.2186 5.16298 19.301 5.21922 19.37 5.28998C19.5104 5.4306 19.5893 5.62123 19.5893 5.81998C19.5893 6.01873 19.5104 6.20935 19.37 6.34998L14.16 11.55C14.0911 11.6205 14.0086 11.6764 13.9175 11.7142C13.8264 11.752 13.7286 11.771 13.63 11.77Z" fill="white"/>
<path d="M7.78997 11.7991C7.12147 11.7991 6.46799 11.6008 5.91215 11.2294C5.35631 10.858 4.92309 10.3301 4.66726 9.71253C4.41144 9.09492 4.3445 8.41531 4.47492 7.75966C4.60534 7.104 4.92725 6.50174 5.39995 6.02904C5.87266 5.55634 6.47491 5.23443 7.13057 5.10401C7.78623 4.97359 8.46583 5.04053 9.08345 5.29635C9.70106 5.55218 10.2289 5.9854 10.6003 6.54124C10.9717 7.09707 11.17 7.75056 11.17 8.41906C11.1673 9.31468 10.8104 10.1729 10.1771 10.8062C9.54378 11.4395 8.6856 11.7964 7.78997 11.7991ZM7.78997 6.53906C7.41815 6.53906 7.05467 6.64932 6.7455 6.8559C6.43634 7.06248 6.19537 7.35609 6.05308 7.69962C5.91079 8.04314 5.87356 8.42115 5.9461 8.78583C6.01864 9.15052 6.19769 9.4855 6.46061 9.74843C6.72354 10.0113 7.05852 10.1904 7.4232 10.2629C7.78789 10.3355 8.16589 10.2983 8.50942 10.156C8.85294 10.0137 9.14656 9.7727 9.35314 9.46354C9.55971 9.15437 9.66997 8.79089 9.66997 8.41906C9.66997 7.92046 9.4719 7.44227 9.11934 7.0897C8.76677 6.73713 8.28858 6.53906 7.78997 6.53906Z" fill="white"/>
<path d="M7.78997 19.9983C7.12147 19.9983 6.46799 19.8 5.91215 19.4286C5.35631 19.0573 4.92309 18.5294 4.66726 17.9118C4.41144 17.2941 4.3445 16.6145 4.47492 15.9589C4.60534 15.3032 4.92725 14.701 5.39995 14.2283C5.87266 13.7556 6.47491 13.4336 7.13057 13.3032C7.78623 13.1728 8.46583 13.2397 9.08345 13.4956C9.70106 13.7514 10.2289 14.1846 10.6003 14.7405C10.9717 15.2963 11.17 15.9498 11.17 16.6183C11.1673 17.5139 10.8104 18.3721 10.1771 19.0054C9.54378 19.6387 8.6856 19.9956 7.78997 19.9983ZM7.78997 14.7383C7.41815 14.7383 7.05467 14.8485 6.7455 15.0551C6.43634 15.2617 6.19537 15.5553 6.05308 15.8988C5.91079 16.2424 5.87356 16.6204 5.9461 16.9851C6.01864 17.3497 6.19769 17.6847 6.46061 17.9476C6.72354 18.2106 7.05852 18.3896 7.4232 18.4622C7.78789 18.5347 8.16589 18.4975 8.50942 18.3552C8.85294 18.2129 9.14656 17.9719 9.35314 17.6628C9.55971 17.3536 9.66997 16.9901 9.66997 16.6183C9.66997 16.1197 9.4719 15.6415 9.11934 15.2889C8.76677 14.9364 8.28858 14.7383 7.78997 14.7383Z" fill="white"/>
<path d="M16.21 19.9983C15.5415 19.9983 14.888 19.8 14.3321 19.4286C13.7763 19.0573 13.3431 18.5294 13.0872 17.9118C12.8314 17.2941 12.7645 16.6145 12.8949 15.9589C13.0253 15.3032 13.3472 14.701 13.8199 14.2283C14.2926 13.7556 14.8949 13.4336 15.5506 13.3032C16.2062 13.1728 16.8858 13.2397 17.5034 13.4956C18.121 13.7514 18.6489 14.1846 19.0203 14.7405C19.3917 15.2963 19.59 15.9498 19.59 16.6183C19.5873 17.5139 19.2304 18.3721 18.5971 19.0054C17.9638 19.6387 17.1056 19.9956 16.21 19.9983ZM16.21 14.7383C15.8381 14.7383 15.4746 14.8485 15.1655 15.0551C14.8563 15.2617 14.6154 15.5553 14.4731 15.8988C14.3308 16.2424 14.2935 16.6204 14.3661 16.9851C14.4386 17.3497 14.6177 17.6847 14.8806 17.9476C15.1435 18.2106 15.4785 18.3896 15.8432 18.4622C16.2079 18.5347 16.5859 18.4975 16.9294 18.3552C17.2729 18.2129 17.5665 17.9719 17.7731 17.6628C17.9797 17.3536 18.09 16.9901 18.09 16.6183C18.09 16.1197 17.8919 15.6415 17.5393 15.2889C17.1867 14.9364 16.7086 14.7383 16.21 14.7383Z" fill="white"/>
</svg>
