<svg width="30" height="30" viewBox="0 0 30 30" fill="none" xmlns="http://www.w3.org/2000/svg">
<path d="M10.0529 24.74C9.61675 24.7531 9.18831 24.6232 8.83289 24.37C8.48979 24.122 8.23425 23.7715 8.10306 23.3689C7.97188 22.9664 7.97182 22.5326 8.10289 22.13L9.36289 18.24C9.39516 18.1381 9.39519 18.0286 9.36298 17.9266C9.33077 17.8246 9.26788 17.735 9.18289 17.67L5.87289 15.27C5.51324 15.0247 5.24348 14.6687 5.10455 14.2561C4.96563 13.8435 4.96514 13.3968 5.10315 12.9839C5.24117 12.5709 5.51015 12.2143 5.86926 11.9682C6.22837 11.7221 6.65799 11.5998 7.09289 11.62H11.1829C11.2898 11.6207 11.3941 11.587 11.4805 11.524C11.5669 11.4611 11.6308 11.372 11.6629 11.27L12.9229 7.37003C13.0559 6.9693 13.3123 6.62093 13.6554 6.37484C13.9985 6.12874 14.4107 5.99754 14.8329 6.00003C15.2551 5.99754 15.6673 6.12874 16.0104 6.37484C16.3535 6.62093 16.6099 6.9693 16.7429 7.37003L18.0029 11.27C18.035 11.372 18.0989 11.4611 18.1853 11.524C18.2717 11.587 18.376 11.6207 18.4829 11.62H22.5729C22.9988 11.6155 23.415 11.7471 23.761 11.9956C24.1069 12.2441 24.3645 12.5966 24.4962 13.0016C24.6278 13.4067 24.6267 13.8432 24.4931 14.2477C24.3594 14.6521 24.1001 15.0033 23.7529 15.25L20.4429 17.66C20.3576 17.7224 20.2942 17.8102 20.2618 17.9108C20.2295 18.0114 20.2299 18.1196 20.2629 18.22L21.5229 22.11C21.6628 22.5112 21.6714 22.9465 21.5473 23.3528C21.4233 23.7592 21.173 24.1155 20.8329 24.37C20.4904 24.6203 20.0771 24.7552 19.6529 24.7552C19.2287 24.7552 18.8154 24.6203 18.4729 24.37L15.1729 21.97C15.0857 21.9066 14.9807 21.8725 14.8729 21.8725C14.7651 21.8725 14.6601 21.9066 14.5729 21.97L11.2329 24.37C10.8885 24.6149 10.4754 24.7445 10.0529 24.74ZM14.8329 20.37C15.2577 20.3714 15.671 20.508 16.0129 20.76L19.3229 23.16C19.4101 23.2214 19.5143 23.2539 19.6209 23.2529C19.7275 23.2519 19.8312 23.2176 19.9173 23.1547C20.0033 23.0918 20.0675 23.0035 20.1008 22.9022C20.1341 22.8009 20.1349 22.6917 20.1029 22.59L18.8329 18.69C18.6995 18.2861 18.6983 17.8502 18.8296 17.4455C18.9609 17.0409 19.2177 16.6887 19.5629 16.44L22.8329 14.04C22.9229 13.9794 22.9898 13.89 23.0224 13.7865C23.0551 13.6829 23.0518 13.5714 23.0129 13.47C22.9823 13.3672 22.9187 13.2772 22.832 13.214C22.7453 13.1508 22.6402 13.1178 22.5329 13.12H18.4829C18.0611 13.1197 17.6503 12.9861 17.309 12.7382C16.9678 12.4904 16.7136 12.141 16.5829 11.74L15.3129 7.85003C15.2838 7.74628 15.2206 7.65535 15.1335 7.59186C15.0465 7.52837 14.9406 7.49603 14.8329 7.50004C14.7252 7.49603 14.6193 7.52837 14.5322 7.59186C14.4452 7.65535 14.382 7.74628 14.3529 7.85003L13.0829 11.73C12.9539 12.1329 12.7005 12.4844 12.3591 12.7342C12.0177 12.984 11.6059 13.119 11.1829 13.12H7.09289C6.9856 13.1178 6.88052 13.1508 6.7938 13.214C6.70709 13.2772 6.64353 13.3672 6.61289 13.47C6.57401 13.5714 6.57065 13.6829 6.60334 13.7865C6.63603 13.89 6.70285 13.9794 6.79289 14.04L10.1029 16.44C10.448 16.6887 10.7049 17.0409 10.8362 17.4455C10.9675 17.8502 10.9663 18.2861 10.8329 18.69L9.56289 22.57C9.53093 22.6718 9.53165 22.7809 9.56495 22.8822C9.59824 22.9835 9.66245 23.0718 9.74853 23.1347C9.83461 23.1976 9.93824 23.2319 10.0449 23.2329C10.1515 23.2339 10.2557 23.2014 10.3429 23.14L13.6529 20.74C13.9973 20.4951 14.4103 20.3656 14.8329 20.37Z" fill="#F34C61"/>
</svg>
