<svg width="30" height="30" viewBox="0 0 30 30" fill="none" xmlns="http://www.w3.org/2000/svg">
<path d="M15.2197 16.8013L12.4878 16.7939L12.8101 14.9409L15.3003 14.9482C15.6421 14.9482 15.9546 14.8872 16.2378 14.7651C16.521 14.6431 16.7529 14.4648 16.9336 14.2305C17.1191 13.9961 17.2363 13.7031 17.2852 13.3516C17.334 13.0586 17.3218 12.79 17.2485 12.5459C17.1802 12.3018 17.0508 12.104 16.8604 11.9526C16.6699 11.7964 16.416 11.7109 16.0986 11.6963L14.2236 11.689L12.6929 20.5H10.3711L12.2168 9.83594L16.1719 9.84326C16.8604 9.85791 17.4756 10.0068 18.0176 10.29C18.5645 10.5732 18.9844 10.9712 19.2773 11.4839C19.5752 11.9966 19.6948 12.6143 19.6362 13.3369C19.5728 14.123 19.3262 14.7725 18.8965 15.2852C18.4717 15.7979 17.9346 16.1787 17.2852 16.4277C16.6357 16.6768 15.9473 16.8013 15.2197 16.8013Z" fill="#292B30"/>
<path d="M29.9694 15.5492C29.95 15.534 29.9213 15.5296 29.8996 15.5362C29.8724 15.5441 29.8476 15.5507 29.8243 15.5572L29.8127 15.5601C29.7553 15.576 29.7056 15.5891 29.656 15.6079C28.8778 15.8972 28.2649 16.3924 27.7823 17.1219C27.6628 17.3024 27.5713 17.4895 27.4976 17.6765C27.6178 17.0479 27.6457 16.8036 27.6675 16.1003C27.6682 16.0705 27.6682 16.0408 27.6682 16.0111C27.6682 15.9299 27.6682 15.853 27.6869 15.7827C27.7094 15.6993 27.7559 15.6166 27.8001 15.5362C27.8126 15.5137 27.825 15.4905 27.835 15.4709C27.8389 15.4673 27.8506 15.46 27.8544 15.46C28.0771 15.4281 28.2742 15.3397 28.4565 15.1903C28.6404 15.0388 28.7917 14.8532 28.9057 14.6378C29.3161 13.8678 29.5217 13.0173 29.5171 12.1095C29.5171 12.0218 29.5055 11.937 29.4938 11.8442C29.4884 11.8029 29.483 11.7601 29.4783 11.7158C29.476 11.6919 29.4597 11.6702 29.4364 11.66C29.4139 11.6499 29.386 11.6506 29.3635 11.6636C29.3495 11.6716 29.3379 11.6781 29.327 11.6839C29.3061 11.6955 29.2905 11.705 29.275 11.7151C28.9243 11.95 28.6156 12.2422 28.3564 12.5837C27.9336 13.142 27.6876 13.7728 27.6209 14.4667C27.6147 14.3891 27.6077 14.3123 27.6007 14.2347L27.5984 14.2064C27.5728 13.9033 27.5457 13.5894 27.5239 13.2812C27.5185 13.2029 27.5022 13.1275 27.4867 13.0536C27.4564 12.9122 27.4285 12.7788 27.4735 12.6388C27.4836 12.6069 27.4921 12.575 27.5014 12.5439C27.5232 12.4648 27.6263 12.3437 27.7854 12.2118L27.7916 12.2067C27.8506 12.1603 28.1508 11.9029 28.3215 11.3939C28.4945 10.877 28.4813 10.3368 28.472 9.94236V9.93148C28.4588 9.38914 28.3968 8.98094 28.2688 8.60681C28.2525 8.55896 28.2323 8.51183 28.2121 8.4618C28.2013 8.4357 28.1904 8.40959 28.1788 8.38132C28.1694 8.35739 28.1469 8.34071 28.1213 8.33636H28.1081C28.0856 8.33564 28.0639 8.34506 28.05 8.36102L27.9258 8.5024C27.33 9.18105 27.0375 9.97716 27.0561 10.869C27.0592 11.0256 27.0716 11.1873 27.0941 11.3533C26.9428 10.8654 26.7652 10.3897 26.5634 9.93293C26.5596 9.92278 26.5565 9.91046 26.5565 9.90031L26.5549 9.83795C26.5526 9.74804 26.551 9.65451 26.5549 9.56243C26.5549 9.5472 26.5658 9.51965 26.5883 9.49283C26.6193 9.4544 26.6542 9.41669 26.6899 9.37754C26.7512 9.31084 26.814 9.24268 26.8637 9.16438C27.0243 8.91278 27.1003 8.61478 27.1011 8.2276C27.1034 7.77155 27.0282 7.29228 26.8645 6.71804C26.7752 6.40482 26.6395 5.99806 26.3881 5.62901C26.371 5.60436 26.3516 5.58115 26.3315 5.5565C26.3221 5.54563 26.3128 5.53403 26.3027 5.52097C26.2888 5.50285 26.2686 5.4927 26.2368 5.4927C26.2112 5.49415 26.1887 5.50792 26.1763 5.52895C25.8605 6.06187 25.703 6.63103 25.6953 7.26908C25.6891 7.80127 25.7775 8.25878 25.8892 8.62131C25.6053 8.13697 25.2903 7.66859 24.9481 7.22485L24.9404 7.2147C24.9326 7.20528 24.9295 7.2002 24.9295 7.20383C24.9078 7.06027 24.893 6.94498 24.8829 6.84493C24.8829 6.84348 24.8853 6.83477 24.9008 6.81012C24.9233 6.77387 24.9481 6.73907 24.9745 6.70136C25.0273 6.62668 25.0816 6.5491 25.1165 6.4621C25.222 6.19963 25.2453 5.90235 25.1886 5.5536C25.0637 4.78069 24.6991 4.08464 24.0745 3.42629C24.0101 3.35886 23.9395 3.29868 23.8643 3.2356L23.8433 3.2182C23.8138 3.19355 23.7836 3.16817 23.7533 3.14135C23.7339 3.12394 23.706 3.11742 23.6796 3.12539C23.654 3.13264 23.6346 3.15295 23.6284 3.17687L23.6144 3.2327C23.6051 3.26968 23.5981 3.29941 23.5927 3.32841C23.5089 3.79752 23.5143 4.29998 23.6113 4.8648C23.7075 5.42454 23.8984 5.90815 24.1924 6.32724C23.7518 5.84217 23.3235 5.43542 22.8758 5.07434C22.8735 5.07217 22.8712 5.06419 22.8704 5.06274C22.9053 4.78142 22.8308 4.51532 22.6431 4.2514C22.3963 3.9041 22.0526 3.63946 21.6228 3.46472C21.3652 3.36031 21.0991 3.26823 20.8384 3.1776C20.7135 3.13409 20.5886 3.09132 20.4598 3.04491C20.3303 2.99706 20.2752 2.98836 20.2449 3.01446C20.2061 3.04781 20.2154 3.07682 20.2325 3.12902L20.2379 3.14642C20.3954 3.64308 20.6049 4.03534 20.878 4.34711C21.3792 4.91918 21.9657 5.20993 22.6687 5.2353C22.6935 5.23675 22.7129 5.24328 22.7207 5.24908C22.82 5.31868 22.8929 5.37379 22.9573 5.42889C23.1613 5.60291 23.3623 5.78852 23.5586 5.98428C23.2661 5.81462 22.9092 5.73777 22.5073 5.75734C22.287 5.76749 22.0689 5.79795 21.8571 5.82695L21.8494 5.8284C21.7873 5.8371 21.7245 5.8458 21.6632 5.85378C21.5274 5.87118 21.3908 5.89365 21.2698 5.91323C21.2209 5.92121 21.1038 5.94658 21.0774 5.99951C21.0681 6.01764 21.0689 6.03721 21.0797 6.05534C21.089 6.07129 21.0991 6.08579 21.1108 6.09957C21.4599 6.52228 21.8579 6.80142 22.3273 6.95151C22.8999 7.13567 23.4267 7.12045 23.8992 6.90365C23.9713 6.86668 24.059 6.84783 24.1583 6.84783C24.2336 6.84783 24.2902 6.8587 24.3088 6.86305C24.3367 6.8674 24.3748 6.8819 24.3825 6.89133C24.6766 7.25241 24.9559 7.63886 25.2166 8.04417C24.9962 7.84405 24.7092 7.70919 24.3181 7.62146C23.9752 7.54533 23.6245 7.52865 23.2862 7.5127L23.173 7.50763C23.0667 7.50255 22.9604 7.49602 22.851 7.4895L22.6671 7.47862C22.6431 7.47862 22.6206 7.4895 22.6074 7.5069C22.5919 7.52575 22.5888 7.55113 22.5973 7.57361C22.605 7.59246 22.6182 7.62508 22.6252 7.63596C22.9829 8.19498 23.4026 8.58143 23.9085 8.8178C24.4027 9.04837 24.8496 9.11 25.3004 9.00921C25.3523 8.99761 25.4128 8.99109 25.4757 8.99109C25.6673 8.99109 25.8008 9.04547 25.8295 9.09622C26.0778 9.57403 26.2989 10.0707 26.4897 10.5775C26.2896 10.3194 26.0095 10.1098 25.6549 9.95324C25.3027 9.79807 24.9365 9.65596 24.5757 9.51603C24.4205 9.45585 24.2654 9.39639 24.1102 9.33476C24.0869 9.32534 24.0598 9.32751 24.0388 9.34056C24.0179 9.35362 24.0055 9.37537 24.0055 9.39929C24.0055 9.44425 24.5198 10.7783 25.267 11.3047C25.5719 11.5194 25.9474 11.7398 26.4207 11.7499C26.5627 11.7528 26.7085 11.7709 26.8195 11.8891C26.8365 11.908 26.859 11.9225 26.8831 11.9305C26.9211 11.9421 26.9312 11.9638 26.9498 12.037C27.1034 12.6388 27.2151 13.2588 27.2834 13.8881C27.2625 13.8243 27.2384 13.7598 27.2105 13.6945C27.0437 13.2986 26.762 12.9513 26.3252 12.6033C26.1003 12.4228 25.8644 12.2488 25.6363 12.0798L25.6254 12.0718C25.5215 11.995 25.4183 11.9181 25.3143 11.8406C25.2934 11.8246 25.2724 11.8079 25.2484 11.7891L25.184 11.7376C25.1615 11.7195 25.1281 11.7158 25.1017 11.7282C25.0746 11.7412 25.0583 11.7673 25.0606 11.7956C25.0637 11.8384 25.066 11.8783 25.0691 11.9174L25.0707 11.9355C25.0761 12.0153 25.0808 12.09 25.0893 12.1639C25.17 12.8854 25.3997 13.4879 25.7915 14.0056C26.0335 14.3253 26.3811 14.7168 26.9234 14.9017C27.0553 14.9467 27.1507 15.0156 27.2532 15.1381C27.3501 15.2534 27.368 15.3585 27.3657 15.4912C27.3564 16.0459 27.3145 16.5962 27.24 17.1349C27.2221 16.9848 27.1857 16.8304 27.129 16.6701C27.0119 16.3381 26.8288 16.0154 26.5696 15.6833C26.3462 15.3955 26.1134 15.1069 25.8884 14.8278L25.8737 14.8089C25.7845 14.6987 25.6953 14.5878 25.6084 14.479C25.5921 14.4566 25.5688 14.4486 25.5548 14.4442C25.5354 14.4355 25.5129 14.4348 25.492 14.4428C25.4718 14.4508 25.4563 14.4667 25.4501 14.4856L25.4478 14.4928C25.4439 14.503 25.4408 14.5117 25.4392 14.5211C25.2841 15.3861 25.3795 16.1604 25.7302 16.8898C25.9016 17.2466 26.1313 17.6504 26.5371 17.9404C26.7225 18.0731 26.8683 18.2595 26.9483 18.4639C26.9653 18.5082 26.9645 18.527 26.963 18.535C26.7915 19.1991 26.5673 19.8394 26.295 20.4455C26.3648 20.1258 26.3602 19.7908 26.2802 19.4428C26.167 18.9497 25.9715 18.4726 25.7969 18.0637L25.7449 17.9412C25.6634 17.7498 25.5812 17.5562 25.4959 17.356C25.485 17.3307 25.4594 17.3133 25.4245 17.3111C25.3973 17.3111 25.3717 17.3256 25.3593 17.3495L25.3322 17.3974C25.3205 17.4184 25.3089 17.438 25.2996 17.4583C24.9489 18.1971 24.831 18.9548 24.9481 19.7103C25.0319 20.2505 25.1739 20.6369 25.4082 20.9639C25.53 21.1329 25.6448 21.3214 25.6658 21.5527C25.6704 21.6078 25.6681 21.6455 25.6425 21.6882C25.3469 22.1726 25.0148 22.6294 24.6517 23.0543C24.6533 23.0521 24.6548 23.0499 24.6556 23.047C24.9171 22.6004 24.9248 22.1182 24.8985 21.7049C24.8752 21.3504 24.8317 20.9965 24.7898 20.655L24.7875 20.6355C24.7704 20.4984 24.7542 20.3614 24.7386 20.2244C24.7301 20.1468 24.72 20.0685 24.7099 19.9902L24.6967 19.8836C24.6936 19.8597 24.6781 19.8394 24.6564 19.8292C24.6153 19.8089 24.5486 19.8401 24.4764 19.9198C23.9806 20.468 23.6726 21.0872 23.5617 21.7608C23.4468 22.459 23.5089 23.0564 23.7525 23.5879C23.7587 23.6024 23.7587 23.6307 23.7587 23.6408L23.7455 23.9461C23.744 23.9678 23.7316 23.9925 23.7207 24.0019C23.2257 24.4478 22.6803 24.835 22.0953 25.1576C22.3723 24.9234 22.5717 24.6189 22.7005 24.2317C22.8432 23.8032 22.9169 23.3566 22.9883 22.9245L22.9945 22.886C23.0201 22.7338 23.0457 22.5822 23.0729 22.4271L23.1031 22.2516C23.1078 22.2262 23.0969 22.2009 23.0752 22.1849C23.0543 22.169 23.024 22.1653 22.9992 22.1755L22.9728 22.1856C22.9449 22.1965 22.92 22.2059 22.8968 22.2168C21.7912 22.7331 21.0627 23.9366 21.1658 25.0793C21.1821 25.2584 21.1643 25.4266 21.1123 25.5927C21.1077 25.6079 21.0914 25.6246 21.0852 25.6267C20.5599 25.8341 20.0603 25.9849 19.5583 26.0886C19.5327 26.0944 19.5117 26.1118 19.504 26.135C19.4954 26.1582 19.5009 26.1836 19.5179 26.2032C19.5723 26.2633 19.6204 26.3286 19.6592 26.3968C19.6754 26.4243 19.7135 26.4388 19.7422 26.4316C20.1518 26.3446 20.5506 26.2314 20.9277 26.0951C20.9579 26.0835 20.9812 26.0785 21.0029 26.0814C21.0867 26.0915 21.1759 26.1082 21.2737 26.1307C21.2939 26.135 21.3109 26.1437 21.3109 26.143C21.5258 26.5439 21.8959 26.7992 22.4413 26.9231C22.5601 26.95 22.6826 26.9695 22.8052 26.9811C22.934 26.9935 23.0768 27 23.2312 27C23.4445 27 23.5966 26.9877 23.5981 26.9877C24.0714 26.9384 24.4748 26.839 24.8325 26.6832C24.9791 26.6193 25.1467 26.5338 25.2747 26.3808C25.2996 26.3518 25.2949 26.309 25.2654 26.2844C24.9023 25.9849 24.5323 25.7667 24.1342 25.6188C23.5446 25.3998 23.0077 25.3403 22.4809 25.4353C22.4026 25.4498 22.3257 25.468 22.2505 25.4883C22.7432 25.2135 23.2141 24.8901 23.6594 24.5218C23.668 24.5145 23.6819 24.508 23.6928 24.5065C23.7657 24.4949 23.8627 24.4812 23.9612 24.4746C23.9705 24.4746 23.9822 24.479 23.9837 24.479C24.2522 24.7596 24.5974 24.8959 25.0404 24.8959C25.0629 24.8959 25.0854 24.8959 25.1079 24.8944C25.589 24.8799 26.0731 24.7567 26.5464 24.5268C26.8901 24.3594 27.2493 24.1636 27.5394 23.8728C27.6038 23.8083 27.6613 23.7351 27.7125 23.6705L27.7171 23.664C27.7396 23.6357 27.7621 23.6067 27.7854 23.5785C27.7978 23.5632 27.8032 23.5437 27.8001 23.5234C27.7963 23.5045 27.7846 23.4871 27.7644 23.4748C27.759 23.4719 27.6364 23.4103 27.5239 23.3696C26.7714 23.0978 26.011 23.0702 25.2864 23.2884C25.049 23.3595 24.8255 23.4668 24.6083 23.6147C25.0102 23.1775 25.3826 22.699 25.7209 22.1835C25.7247 22.1777 25.7341 22.1632 25.7372 22.1603C25.7666 22.1429 25.7969 22.1262 25.8272 22.1095C25.8815 22.0798 25.9373 22.0493 25.9901 22.0123C26.0343 21.9812 26.0467 21.9804 26.0917 22.0073C26.1553 22.0457 26.229 22.066 26.2934 22.0812C26.6697 22.1711 27.0491 22.1262 27.4688 21.942C27.8521 21.7738 28.1469 21.5084 28.4084 21.2467C28.7886 20.8646 29.0376 20.5202 29.1905 20.1627C29.223 20.0873 29.2455 20.0097 29.2696 19.9285C29.2797 19.8945 29.2898 19.8604 29.2999 19.827C29.3115 19.7908 29.2913 19.7531 29.2533 19.7407L29.2215 19.7386C29.0663 19.7386 27.683 19.7596 26.8738 20.4934C26.6977 20.6529 26.5402 20.8225 26.3958 21.0081C26.7163 20.3744 26.987 19.7067 27.2066 19.0135L27.2097 19.0034C27.212 18.9947 27.2159 18.9823 27.219 18.9787L27.4308 18.7068C27.4386 18.6959 27.4394 18.6959 27.4518 18.6959C27.4572 18.6959 27.4634 18.6959 27.4704 18.6959L27.5154 18.6988C27.6729 18.7083 27.766 18.7068 27.842 18.6952C28.1431 18.651 28.4154 18.5089 28.6737 18.2616C29.2774 17.683 29.6932 16.9609 29.9438 16.0553C29.971 15.9581 29.9779 15.8603 29.9865 15.7566C29.9904 15.7094 29.9942 15.6609 29.9997 15.6108C30.002 15.5869 29.9919 15.5637 29.9725 15.5485L29.9694 15.5492Z" fill="#292B30"/>
<path d="M10.4355 26.09C9.9337 25.9863 9.4342 25.8355 8.9091 25.6282C8.9029 25.6253 8.88738 25.6086 8.88196 25.5941C8.82921 25.4273 8.81215 25.2591 8.82844 25.08C8.93159 23.9373 8.20329 22.7337 7.09803 22.2174C7.07476 22.2065 7.04994 22.1964 7.02202 22.1855L6.99565 22.1754C6.97083 22.1652 6.94058 22.1696 6.92041 22.1848C6.89869 22.2007 6.88784 22.2261 6.89249 22.2515L6.92274 22.427C6.94989 22.5821 6.97548 22.7337 7.00108 22.8852L7.00728 22.9251C7.07864 23.3565 7.15155 23.8031 7.29426 24.2317C7.42301 24.6181 7.62235 24.9234 7.89924 25.1576C7.31443 24.8349 6.76917 24.4477 6.27432 24.0025C6.26424 23.9931 6.25183 23.9685 6.2495 23.9482L6.23631 23.6422C6.23631 23.6313 6.23632 23.6023 6.24252 23.5885C6.48606 23.0578 6.54889 22.4603 6.43332 21.7613C6.32241 21.0877 6.01449 20.4685 5.51887 19.9204C5.46069 19.8558 5.4095 19.8239 5.36684 19.8239C5.35599 19.8239 5.34668 19.8261 5.3397 19.8297C5.31721 19.8406 5.30169 19.8609 5.29859 19.8848L5.2854 19.9914C5.27532 20.0705 5.26524 20.148 5.25671 20.2264C5.24119 20.3634 5.22491 20.5004 5.20784 20.6375L5.20552 20.657C5.16363 20.9993 5.1202 21.3531 5.09693 21.707C5.07056 22.1203 5.07831 22.6031 5.3397 23.0498C5.34125 23.052 5.34202 23.0541 5.34358 23.057C4.98059 22.6322 4.64862 22.1754 4.35311 21.691C4.32674 21.6482 4.32441 21.6105 4.32984 21.5554C4.35078 21.3234 4.46635 21.1349 4.58735 20.9667C4.82158 20.6396 4.96352 20.2525 5.04729 19.713C5.16441 18.9575 5.04651 18.1998 4.69593 17.4609C4.68663 17.4406 4.67499 17.421 4.66336 17.4L4.63621 17.3514C4.62303 17.3282 4.5951 17.3123 4.56563 17.3137C4.53616 17.3152 4.50979 17.3326 4.4997 17.358C4.41438 17.5581 4.33217 17.7517 4.25073 17.9431L4.19876 18.0656C4.02425 18.4746 3.82957 18.9524 3.71555 19.4447C3.63566 19.7928 3.63023 20.1277 3.70081 20.4475C3.42857 19.8413 3.20442 19.2011 3.033 18.5369C3.03068 18.5297 3.03068 18.5101 3.04774 18.4659C3.12763 18.2607 3.27422 18.0743 3.45882 17.9416C3.86369 17.6509 4.09405 17.2478 4.26546 16.891C4.61604 16.1616 4.71145 15.3872 4.55632 14.5222C4.55477 14.5135 4.55167 14.5041 4.54857 14.4946L4.54546 14.4867C4.53848 14.4671 4.52375 14.4519 4.5028 14.4432C4.48264 14.4352 4.45782 14.4366 4.44231 14.4439C4.42679 14.449 4.40352 14.4569 4.38801 14.478C4.30037 14.5875 4.21117 14.6984 4.12197 14.8086L4.10724 14.8275C3.88231 15.1066 3.64962 15.3952 3.42624 15.683C3.16719 16.0151 2.98414 16.3378 2.86702 16.6699C2.8104 16.8301 2.77317 16.9845 2.75611 17.1346C2.68165 16.5959 2.63899 16.0456 2.63046 15.4909C2.62813 15.3582 2.64597 15.2531 2.74292 15.1378C2.8453 15.0152 2.94071 14.9464 3.07256 14.9014C3.61472 14.7165 3.9622 14.325 4.20419 14.0052C4.5951 13.4875 4.82469 12.885 4.90613 12.1635C4.91466 12.0896 4.91931 12.0142 4.92474 11.9344L4.92629 11.9163C4.92862 11.8778 4.93095 11.8372 4.93482 11.7945C4.93715 11.7662 4.92086 11.7394 4.89372 11.727C4.86735 11.7147 4.83399 11.7183 4.8115 11.7365L4.74712 11.7879C4.72308 11.8075 4.70214 11.8235 4.68042 11.8401C4.57726 11.9177 4.47333 11.9946 4.3694 12.0714L4.35854 12.0794C4.13051 12.2484 3.89472 12.4231 3.66979 12.6029C3.23311 12.951 2.95156 13.2983 2.78403 13.6942C2.75611 13.7594 2.73206 13.8239 2.71112 13.8878C2.78015 13.2584 2.89184 12.6377 3.04464 12.0366C3.06325 11.9634 3.07334 11.9417 3.11212 11.9293C3.13616 11.9221 3.15865 11.9069 3.17494 11.8887C3.28586 11.7705 3.43245 11.7517 3.57439 11.7495C4.04752 11.7394 4.42292 11.5182 4.72696 11.3043C5.47388 10.7786 5.98812 9.4445 5.98812 9.39882C5.98812 9.37562 5.97571 9.35314 5.95399 9.34009C5.93305 9.32704 5.90435 9.32559 5.88341 9.33429C5.72751 9.39592 5.57238 9.4561 5.41106 9.51846C5.0566 9.6555 4.6905 9.79761 4.33837 9.95278C3.98391 10.1094 3.70392 10.3189 3.50381 10.5771C3.69461 10.0702 3.91566 9.57356 4.16308 9.09646C4.19178 9.04498 4.32519 8.9906 4.51677 8.9906C4.57881 8.9906 4.63931 8.99713 4.69206 9.00873C5.14269 9.10951 5.58945 9.04861 6.08352 8.81731C6.58922 8.58094 7.00883 8.19447 7.36639 7.63544C7.37337 7.62456 7.38656 7.59193 7.39354 7.57308C7.40285 7.5506 7.39897 7.52523 7.38423 7.50637C7.37027 7.48825 7.34778 7.47737 7.31986 7.47737L7.14146 7.48752C7.0321 7.49405 6.92584 7.50057 6.81958 7.50565L6.70634 7.51073C6.36739 7.52668 6.01681 7.54335 5.67399 7.61949C5.28308 7.70722 4.9961 7.84208 4.77582 8.04221C5.03643 7.63689 5.31565 7.25115 5.60961 6.89006C5.61737 6.88064 5.65538 6.86613 5.6864 6.86106C5.70191 6.85743 5.75853 6.84656 5.83377 6.84656C5.93305 6.84656 6.02069 6.86541 6.09438 6.90384C6.5644 7.11846 7.09182 7.13441 7.66423 6.95024C8.13426 6.80015 8.53137 6.52172 8.8804 6.09828C8.89204 6.0845 8.90212 6.07 8.91143 6.05405C8.92229 6.03592 8.92306 6.01635 8.91376 5.99822C8.88661 5.94529 8.77027 5.92064 8.72063 5.91194C8.59963 5.89236 8.46312 5.86988 8.32739 5.85248C8.26534 5.8445 8.20329 5.8358 8.14046 5.8271L8.13271 5.82565C7.92174 5.79665 7.70301 5.7662 7.48274 5.75605C7.08097 5.73719 6.7234 5.81333 6.43177 5.98372C6.628 5.78795 6.82889 5.60305 7.03288 5.42831C7.09725 5.37321 7.17016 5.3181 7.26944 5.24849C7.2772 5.24269 7.29659 5.23617 7.32063 5.23544C8.02489 5.20934 8.61049 4.91931 9.11154 4.34723C9.38456 4.03617 9.59397 3.64318 9.75142 3.1465L9.75685 3.1291C9.77392 3.0769 9.78323 3.04789 9.74444 3.01454C9.7142 2.98844 9.66223 2.99641 9.52572 3.04717C9.40162 3.09212 9.27674 3.1349 9.14877 3.17986C8.89126 3.26904 8.62445 3.36112 8.36772 3.46554C7.93802 3.64028 7.5952 3.90493 7.34778 4.25224C7.16008 4.51617 7.08562 4.78227 7.12052 5.06215C7.12052 5.06505 7.11742 5.07303 7.11664 5.07375C6.66833 5.43556 6.23942 5.84305 5.79887 6.32813C6.09283 5.90831 6.28363 5.42541 6.3798 4.86565C6.47676 4.30082 6.48296 3.79834 6.39842 3.32922C6.39299 3.30022 6.38601 3.27049 6.3767 3.23351L6.36274 3.17696C6.35654 3.15303 6.33715 3.13273 6.31155 3.12548C6.28595 3.11822 6.25726 3.12475 6.23787 3.14143C6.20684 3.16825 6.17737 3.19363 6.14789 3.21901L6.12695 3.23641C6.05172 3.29949 5.98036 3.35967 5.91676 3.42711C5.29161 4.0862 4.92784 4.78155 4.80297 5.55447C4.74635 5.90396 4.76962 6.20124 4.8751 6.46299C4.91 6.55 4.9643 6.62758 5.01859 6.70444C5.04341 6.73997 5.06823 6.77477 5.09072 6.81103C5.10779 6.83713 5.10856 6.84366 5.10856 6.84221C5.09848 6.94589 5.08374 7.06045 5.06358 7.19894C5.0628 7.20039 5.0597 7.20474 5.05117 7.21562L5.04419 7.22505C4.70291 7.66879 4.38724 8.13719 4.10336 8.62154C4.21505 8.25973 4.30347 7.80148 4.29727 7.26928C4.28951 6.63121 4.13283 6.06203 3.81638 5.5291C3.80397 5.50807 3.78148 5.49502 3.74968 5.49284C3.72641 5.49284 3.70469 5.50372 3.68995 5.52185C3.68065 5.53417 3.67056 5.54577 3.66203 5.55665C3.64187 5.5813 3.62248 5.6045 3.60541 5.62988C3.35411 5.99895 3.21915 6.40571 3.12918 6.71822C2.96553 7.29248 2.89029 7.77175 2.89262 8.22782C2.89417 8.61501 2.9694 8.91229 3.12996 9.16462C3.18037 9.24293 3.2432 9.31181 3.30602 9.38069C3.33937 9.41695 3.37428 9.45465 3.4053 9.4938C3.42702 9.52063 3.43788 9.54818 3.43865 9.56341C3.44253 9.6555 3.44098 9.74831 3.43865 9.83894L3.4371 9.9013C3.4371 9.91217 3.434 9.9245 3.43012 9.93392C3.22846 10.3914 3.05084 10.8671 2.89882 11.3551C2.92131 11.189 2.93372 11.0281 2.93683 10.8707C2.95544 9.9796 2.66303 9.18347 2.06736 8.50408L1.94326 8.36269C1.9293 8.34601 1.90758 8.33659 1.88509 8.33659H1.87268C1.84631 8.34166 1.82381 8.35906 1.8145 8.38226C1.80287 8.41054 1.79201 8.43737 1.78115 8.46275C1.76021 8.51278 1.74082 8.55991 1.72376 8.60776C1.59578 8.9819 1.53373 9.39012 1.52055 9.93247V9.94335C1.51046 10.3378 1.49728 10.878 1.67102 11.3949C1.84165 11.904 2.14259 12.1614 2.20076 12.207L2.20697 12.2121C2.36597 12.3448 2.46913 12.4659 2.49085 12.5442C2.49938 12.5761 2.50791 12.608 2.51877 12.6392C2.56375 12.7791 2.53583 12.9125 2.50558 13.0568C2.49007 13.1293 2.47456 13.2047 2.46913 13.2816C2.44741 13.5897 2.42026 13.9037 2.39467 14.2068L2.39234 14.2351C2.38536 14.3126 2.37916 14.3895 2.37218 14.4671C2.30625 13.7732 2.06038 13.1424 1.63689 12.5841C1.37783 12.2426 1.06913 11.9504 0.718554 11.7154C0.703817 11.7053 0.687529 11.6966 0.666587 11.6843C0.656504 11.6785 0.644094 11.6719 0.630133 11.6632C0.608416 11.6509 0.580494 11.6502 0.558001 11.6603C0.534732 11.6712 0.51922 11.6922 0.516117 11.7162C0.511463 11.7597 0.506034 11.8024 0.499829 11.8467C0.488195 11.9366 0.477336 12.0221 0.476561 12.1099C0.471131 13.0177 0.676671 13.8689 1.08775 14.6382C1.20254 14.8528 1.35301 15.0384 1.53761 15.1907C1.71988 15.3408 1.91689 15.4285 2.13871 15.4604C2.14337 15.4612 2.155 15.4677 2.15733 15.4691C2.16974 15.4916 2.18215 15.5141 2.19456 15.5373C2.23877 15.6171 2.28453 15.7004 2.3078 15.7831C2.32719 15.8534 2.32719 15.9303 2.32719 16.0115C2.32719 16.0412 2.32719 16.071 2.32797 16.1007C2.34891 16.804 2.37761 17.0491 2.49783 17.677C2.42414 17.4899 2.33184 17.3029 2.21317 17.1223C1.73074 16.3929 1.11877 15.8977 0.340827 15.6084C0.291187 15.5895 0.241548 15.5765 0.184152 15.5605L0.172517 15.5576C0.149249 15.5511 0.124429 15.5445 0.0980579 15.5366C0.0740137 15.5293 0.046867 15.5344 0.0274765 15.5496C0.00808602 15.5649 -0.00199704 15.5873 0.000329817 15.6113C0.00575916 15.6613 0.00963726 15.7099 0.0135154 15.757C0.0212716 15.8607 0.0290278 15.9586 0.0561745 16.0557C0.307475 16.9621 0.722432 17.6835 1.32586 18.2621C1.58415 18.5094 1.85561 18.6515 2.15733 18.6957C2.23334 18.7066 2.32641 18.708 2.48387 18.6993L2.52885 18.6964C2.53583 18.6964 2.54204 18.6964 2.54747 18.6964C2.55988 18.6964 2.56065 18.6964 2.56918 18.708L2.78015 18.9785C2.78015 18.9785 2.78713 18.9952 2.78946 19.0039L2.79256 19.0133C3.01129 19.7065 3.28275 20.3743 3.60231 21.008C3.45804 20.8224 3.30059 20.6527 3.12453 20.4932C2.31556 19.7594 0.932625 19.7384 0.777501 19.7384H0.758111L0.745701 19.7406C0.707695 19.7529 0.686754 19.7913 0.699163 19.8268C0.710022 19.8602 0.720105 19.8943 0.73174 19.9349C0.753457 20.0103 0.776726 20.0879 0.809302 20.1625C0.962874 20.5207 1.21107 20.8651 1.59113 21.2465C1.85251 21.5083 2.14725 21.7737 2.5304 21.9419C2.95001 22.126 3.32852 22.171 3.70547 22.0811C3.76984 22.0651 3.84353 22.0456 3.90635 22.0071C3.95134 21.9803 3.96375 21.981 4.00796 22.0122C4.0607 22.0485 4.11655 22.0796 4.17084 22.1094C4.20109 22.126 4.23134 22.1427 4.25926 22.1594C4.26391 22.163 4.27322 22.1775 4.2771 22.1833C4.61527 22.6989 4.98757 23.1774 5.38934 23.6146C5.17216 23.4667 4.94879 23.3594 4.71145 23.2883C3.98624 23.0701 3.22691 23.0977 2.47456 23.3696C2.36209 23.4102 2.23954 23.4718 2.23101 23.4761C2.21395 23.487 2.20154 23.5037 2.19844 23.5233C2.19533 23.5428 2.20076 23.5624 2.21317 23.5776C2.23644 23.6059 2.25971 23.6349 2.2822 23.6632L2.28686 23.6697C2.33805 23.7343 2.39544 23.8075 2.45982 23.8728C2.75068 24.1642 3.10902 24.3593 3.45261 24.5268C3.92574 24.7566 4.40973 24.8799 4.89061 24.8944C4.91311 24.8951 4.9356 24.8958 4.95887 24.8958C5.40175 24.8958 5.7469 24.7595 6.01371 24.4804C6.01681 24.4782 6.02845 24.4738 6.03465 24.4738C6.13626 24.4804 6.23321 24.4949 6.30535 24.5057C6.31698 24.5079 6.33094 24.5137 6.33947 24.5217C6.78468 24.89 7.25548 25.2134 7.748 25.4882C7.67354 25.4672 7.59675 25.4498 7.51764 25.4353C6.99177 25.341 6.45426 25.3998 5.86479 25.6187C5.4669 25.7666 5.09693 25.9849 4.73394 26.2844C4.70369 26.309 4.69981 26.3511 4.72463 26.3808C4.85338 26.5338 5.02014 26.6193 5.16673 26.6831C5.5243 26.8383 5.92839 26.9384 6.40152 26.9877C6.40307 26.9877 6.55509 27 6.76839 27C6.92274 27 7.06545 26.9935 7.19421 26.9811C7.31675 26.9688 7.4393 26.9492 7.55797 26.9231C8.10323 26.7992 8.4732 26.5439 8.68495 26.1473C8.68883 26.1437 8.70511 26.135 8.72606 26.1306C8.82456 26.1074 8.91298 26.0915 8.99752 26.0813C9.01769 26.0784 9.04173 26.0835 9.07353 26.0951C9.45048 26.2307 9.84915 26.3438 10.2571 26.4308C10.2626 26.4323 10.2688 26.433 10.275 26.433C10.3021 26.433 10.3277 26.4185 10.3409 26.396C10.3797 26.3279 10.4278 26.2633 10.4821 26.2024C10.4991 26.1836 10.5046 26.1582 10.496 26.1343C10.4883 26.1118 10.4673 26.0944 10.441 26.0886L10.4355 26.09Z" fill="#292B30"/>
</svg>
