<svg width="24" height="24" viewBox="0 0 24 24" fill="none" xmlns="http://www.w3.org/2000/svg">
<path d="M13.71 16.3203C13.5616 16.3203 13.4166 16.2763 13.2933 16.1939C13.1699 16.1115 13.0738 15.9944 13.0171 15.8573C12.9603 15.7203 12.9454 15.5695 12.9744 15.424C13.0033 15.2785 13.0747 15.1449 13.1796 15.04C13.2845 14.9351 13.4182 14.8637 13.5636 14.8347C13.7091 14.8058 13.8599 14.8206 13.997 14.8774C14.134 14.9342 14.2512 15.0303 14.3336 15.1536C14.416 15.277 14.46 15.422 14.46 15.5703C14.4574 15.7684 14.3775 15.9577 14.2374 16.0978C14.0973 16.2379 13.9081 16.3177 13.71 16.3203Z" fill="white"/>
<path d="M13.5 13.8311C13.3011 13.8311 13.1103 13.7521 12.9697 13.6114C12.829 13.4708 12.75 13.28 12.75 13.0811C12.75 12.8822 12.829 12.6914 12.9697 12.5508C13.1103 12.4101 13.3011 12.3311 13.5 12.3311C13.9607 12.297 14.3914 12.0899 14.7058 11.7514C15.0201 11.4129 15.1948 10.9681 15.1948 10.5061C15.1948 10.0442 15.0201 9.59931 14.7058 9.26082C14.3914 8.92233 13.9607 8.71524 13.5 8.68111C12.8148 8.59604 12.1226 8.77087 11.56 9.17111C11.3453 9.39378 11.1807 9.65976 11.0772 9.95123C10.9738 10.2427 10.9338 10.5529 10.96 10.8611C10.96 11.06 10.881 11.2508 10.7403 11.3914C10.5997 11.5321 10.4089 11.6111 10.21 11.6111C10.0111 11.6111 9.82031 11.5321 9.67966 11.3914C9.53901 11.2508 9.45999 11.06 9.45999 10.8611C9.42151 10.3319 9.50114 9.80082 9.69311 9.30619C9.88508 8.81156 10.1846 8.36578 10.57 8.00111C11.4219 7.33883 12.4966 7.03078 13.57 7.14111C14.0003 7.14633 14.4253 7.23642 14.8207 7.40622C15.2161 7.57602 15.5741 7.82219 15.8742 8.13062C16.1742 8.43905 16.4105 8.80368 16.5693 9.20359C16.7282 9.60351 16.8066 10.0308 16.8 10.4611C16.8053 10.8993 16.724 11.3341 16.5609 11.7408C16.3978 12.1475 16.156 12.518 15.8495 12.8311C15.5429 13.1441 15.1776 13.3936 14.7744 13.5652C14.3712 13.7368 13.9381 13.8272 13.5 13.8311Z" fill="white"/>
<path d="M13.08 20.4906C11.6861 20.4807 10.3147 20.1378 9.08004 19.4906C8.98787 19.4482 8.90527 19.3875 8.83723 19.3122C8.7692 19.2369 8.71714 19.1486 8.68422 19.0527C8.6513 18.9567 8.6382 18.855 8.64571 18.7538C8.65322 18.6526 8.68119 18.554 8.72792 18.464C8.77464 18.3739 8.83916 18.2942 8.91756 18.2298C8.99597 18.1654 9.08663 18.1176 9.18405 18.0892C9.28148 18.0609 9.38364 18.0526 9.48437 18.0649C9.58509 18.0771 9.68227 18.1097 9.77004 18.1606C11.2111 18.9008 12.8566 19.1434 14.45 18.8506C15.7241 18.5977 16.9068 18.0072 17.8745 17.1408C18.8422 16.2743 19.5594 15.1638 19.951 13.9254C20.3427 12.6869 20.3944 11.366 20.1008 10.1007C19.8072 8.83536 19.1791 7.67217 18.2821 6.73272C17.3851 5.79326 16.2522 5.11204 15.0018 4.76028C13.7514 4.40853 12.4295 4.39915 11.1743 4.73313C9.91905 5.06712 8.77659 5.73219 7.86636 6.65883C6.95612 7.58546 6.31155 8.73962 6.00004 10.0006C5.55532 11.8714 5.86041 13.8419 6.85004 15.4906C6.94406 15.6577 6.97055 15.8544 6.92405 16.0404C6.87756 16.2264 6.76162 16.3875 6.60004 16.4906C6.43298 16.5846 6.23626 16.6111 6.05029 16.5646C5.86431 16.5181 5.7032 16.4022 5.60004 16.2406C4.86971 15.0331 4.44301 13.6665 4.35651 12.2579C4.27 10.8493 4.52626 9.44076 5.10334 8.15291C5.68041 6.86506 6.56109 5.73631 7.66993 4.86335C8.77877 3.9904 10.0827 3.39928 11.47 3.14063C13.7522 2.71495 16.11 3.21331 18.0248 4.52607C19.9395 5.83882 21.2544 7.85844 21.68 10.1406C22.1057 12.4228 21.6074 14.7806 20.2946 16.6954C18.9818 18.6101 16.9622 19.925 14.68 20.3506C14.1515 20.4419 13.6163 20.4887 13.08 20.4906Z" fill="white"/>
<path d="M5.33001 21.0009C5.09027 21.0067 4.85298 20.9516 4.64026 20.8409C4.42755 20.7302 4.24635 20.5674 4.11356 20.3677C3.98076 20.168 3.90071 19.9379 3.88085 19.6989C3.861 19.4599 3.90199 19.2198 4.00001 19.0009L5.53001 15.5809C5.61357 15.4035 5.76334 15.2658 5.94722 15.1974C6.13109 15.129 6.33444 15.1354 6.51365 15.2152C6.69286 15.295 6.83367 15.4419 6.9059 15.6243C6.97812 15.8067 6.97601 16.0101 6.90001 16.1909L5.48001 19.4509L9.15001 18.1409C9.24441 18.0995 9.34633 18.078 9.44942 18.0777C9.5525 18.0774 9.65454 18.0984 9.74916 18.1393C9.84377 18.1803 9.92894 18.2403 9.99933 18.3156C10.0697 18.3909 10.1238 18.4799 10.1583 18.5771C10.1927 18.6742 10.2068 18.7774 10.1996 18.8803C10.1924 18.9831 10.164 19.0833 10.1163 19.1747C10.0686 19.2661 10.0026 19.3467 9.92236 19.4114C9.84213 19.4762 9.74942 19.5236 9.65001 19.5509L5.80001 20.9209C5.64956 20.9761 5.49025 21.0033 5.33001 21.0009Z" fill="white"/>
</svg>
