<svg width="20" height="20" viewBox="0 0 20 20" fill="none" xmlns="http://www.w3.org/2000/svg">
<g clip-path="url(#clip0_6297_36914)">
<path d="M18.1818 6.36297C18.664 6.36297 19.1265 6.55454 19.4675 6.89553C19.8084 7.23652 20 7.699 20 8.18124V11.8178C20 12.3 19.8084 12.7625 19.4675 13.1035C19.1265 13.4445 18.664 13.6361 18.1818 13.6361H17.2164C16.9947 15.3937 16.1393 17.01 14.8107 18.1817C13.482 19.3534 11.7715 20 10 20V18.1817C11.4466 18.1817 12.834 17.607 13.8569 16.5841C14.8799 15.5611 15.4545 14.1736 15.4545 12.7269V7.2721C15.4545 5.8254 14.8799 4.43795 13.8569 3.41497C12.834 2.39199 11.4466 1.81729 10 1.81729C8.55336 1.81729 7.16598 2.39199 6.14305 3.41497C5.12013 4.43795 4.54545 5.8254 4.54545 7.2721V13.6361H1.81818C1.33597 13.6361 0.873508 13.4445 0.532533 13.1035C0.191558 12.7625 0 12.3 0 11.8178V8.18124C0 7.699 0.191558 7.23652 0.532533 6.89553C0.873508 6.55454 1.33597 6.36297 1.81818 6.36297H2.78364C3.00548 4.60552 3.86098 2.98942 5.18961 1.81791C6.51824 0.646398 8.22869 0 10 0C11.7713 0 13.4818 0.646398 14.8104 1.81791C16.139 2.98942 16.9945 4.60552 17.2164 6.36297H18.1818ZM6.14545 13.4406L7.10909 11.8987C7.97552 12.4415 8.97761 12.7286 10 12.7269C11.0224 12.7286 12.0245 12.4415 12.8909 11.8987L13.8545 13.4406C12.6993 14.1644 11.3632 14.5473 10 14.5452C8.63678 14.5473 7.30067 14.1644 6.14545 13.4406Z" fill="white"/>
</g>
<defs>
<clipPath id="clip0_6297_36914">
<rect width="20" height="20" fill="white"/>
</clipPath>
</defs>
</svg>
