<svg width="15" height="15" viewBox="0 0 15 15" fill="none" xmlns="http://www.w3.org/2000/svg">
<path d="M7.5 0C3.35851 0 0 3.35851 0 7.5C0 11.6415 3.35851 15 7.5 15C11.6415 15 15 11.6415 15 7.5C15 3.35851 11.6415 0 7.5 0ZM11.2626 5.73847V6.75398C10.7837 6.75416 10.3185 6.66032 9.87967 6.4752C9.59751 6.35607 9.33463 6.20259 9.09419 6.01711L9.1014 9.14288C9.09838 9.84674 8.81991 10.5081 8.31592 11.0062C7.90576 11.4117 7.38604 11.6695 6.82271 11.753C6.69035 11.7726 6.55564 11.7826 6.41941 11.7826C5.8164 11.7826 5.24391 11.5873 4.7756 11.2269C4.68747 11.159 4.60318 11.0854 4.52294 11.0062C3.97673 10.4663 3.69507 9.73468 3.7425 8.96496C3.77868 8.37905 4.01326 7.82027 4.40432 7.38231C4.9217 6.80276 5.64551 6.48108 6.41941 6.48108C6.55564 6.48108 6.69035 6.49131 6.82271 6.51091V6.88638V7.93087C6.69721 7.88947 6.56317 7.86671 6.4236 7.86671C5.71655 7.86671 5.14453 8.44356 5.15511 9.15114C5.16182 9.60387 5.40911 9.99961 5.77386 10.2178C5.94527 10.3203 6.14247 10.3838 6.35291 10.3954C6.51779 10.4044 6.67611 10.3814 6.82271 10.333C7.32788 10.1662 7.6923 9.69167 7.6923 9.13204L7.69397 7.03887V3.21738H9.09249C9.09384 3.35596 9.1079 3.49116 9.13403 3.62218C9.23959 4.15248 9.53851 4.61256 9.95452 4.92621C10.3173 5.19981 10.769 5.362 11.2586 5.362C11.2589 5.362 11.2629 5.362 11.2626 5.36168V5.73847H11.2626Z" fill="white"/>
</svg>
