<svg width="17" height="14" viewBox="0 0 17 14" fill="none" xmlns="http://www.w3.org/2000/svg">
<path d="M17 6.73427V0.107371C17 0.00515638 16.8726 -0.0374332 16.8046 0.0392276L9.58321 9.0852C9.52374 9.15334 9.57471 9.26407 9.66817 9.26407H14.8846C15.029 9.26407 15.1564 9.19593 15.2414 9.0852L16.8896 7.02387C16.9575 6.94721 17 6.845 17 6.73427ZM0.110444 7.03239L5.53073 13.8296C5.61569 13.9404 5.75162 14 5.89605 14H11.1124C11.2059 14 11.2569 13.8978 11.1974 13.8296L0.195402 0.0477459C0.127436 -0.0289148 0 0.0136748 0 0.115889V6.74278C0.00849575 6.845 0.0424784 6.94721 0.110444 7.03239Z" fill="white"/>
</svg>
