<svg width="24" height="24" viewBox="0 0 24 24" fill="none" xmlns="http://www.w3.org/2000/svg">
<path d="M12 18.4612C11.802 18.4569 11.6129 18.3784 11.47 18.2413L5.77003 12.5312C5.64495 12.3948 5.57556 12.2164 5.57556 12.0312C5.57556 11.8461 5.64495 11.6677 5.77003 11.5312L14.16 3.00125C14.3006 2.86056 14.4912 2.78143 14.69 2.78125H20.44C20.6372 2.78123 20.8265 2.85888 20.9669 2.99737C21.1072 3.13587 21.1874 3.32408 21.19 3.52125L21.25 9.20125C21.2503 9.40313 21.1713 9.59705 21.03 9.74125L12.52 18.2513C12.3804 18.3859 12.194 18.4611 12 18.4612ZM7.35003 12.0013L12 16.6412L19.76 8.89125L19.7 4.27125L15 4.25125L7.35003 12.0013Z" fill="white"/>
<path d="M14.79 21.25C14.6914 21.2505 14.5938 21.2313 14.5028 21.1935C14.4118 21.1557 14.3292 21.1002 14.26 21.03L2.99997 9.74005C2.90858 9.59909 2.86716 9.43153 2.88234 9.26423C2.89753 9.09692 2.96845 8.93956 3.08373 8.81737C3.19901 8.69517 3.35197 8.61522 3.51811 8.59032C3.68425 8.56542 3.85393 8.59702 3.99997 8.68005L15.32 20C15.4604 20.1407 15.5393 20.3313 15.5393 20.53C15.5393 20.7288 15.4604 20.9194 15.32 21.06C15.2486 21.1252 15.165 21.1756 15.074 21.2082C14.983 21.2408 14.8865 21.255 14.79 21.25Z" fill="white"/>
<path d="M6.99999 21.1903C6.89539 21.2011 6.78971 21.1897 6.68979 21.157C6.58986 21.1243 6.49794 21.0709 6.41999 21.0003L2.99999 17.5503C2.92882 17.4777 2.87274 17.3917 2.83498 17.2973C2.79722 17.2029 2.77853 17.102 2.77999 17.0003C2.77999 16.5903 2.77999 16.5803 6.88999 12.5803C7.0332 12.4411 7.22587 12.3644 7.42559 12.3673C7.62532 12.3701 7.81575 12.4521 7.95499 12.5953C8.09422 12.7385 8.17087 12.9312 8.16806 13.1309C8.16524 13.3307 8.0832 13.5211 7.93999 13.6603C6.65999 14.9103 5.25999 16.2903 4.56999 17.0003L6.99999 19.3803L10.31 16.0003C10.3789 15.9296 10.4613 15.8733 10.5524 15.8349C10.6434 15.7965 10.7412 15.7768 10.84 15.7768C10.9388 15.7768 11.0366 15.7965 11.1276 15.8349C11.2186 15.8733 11.301 15.9296 11.37 16.0003C11.5104 16.141 11.5893 16.3316 11.5893 16.5303C11.5893 16.7291 11.5104 16.9197 11.37 17.0603L7.47999 21.0003C7.34578 21.1156 7.17675 21.1825 6.99999 21.1903Z" fill="white"/>
<path d="M12 12.7531C11.9014 12.7535 11.8038 12.7343 11.7128 12.6965C11.6217 12.6588 11.5392 12.6032 11.47 12.5331C11.3295 12.3925 11.2506 12.2018 11.2506 12.0031C11.2506 11.8043 11.3295 11.6137 11.47 11.4731L15.47 7.47308C15.5386 7.3994 15.6214 7.34029 15.7134 7.2993C15.8054 7.25831 15.9047 7.23627 16.0054 7.23449C16.1061 7.23271 16.2062 7.25124 16.2995 7.28896C16.3929 7.32668 16.4778 7.38283 16.549 7.45404C16.6202 7.52526 16.6764 7.6101 16.7141 7.70349C16.7518 7.79687 16.7703 7.8969 16.7685 7.99761C16.7668 8.09831 16.7447 8.19762 16.7037 8.28962C16.6627 8.38162 16.6036 8.46442 16.53 8.53308L12.53 12.5331C12.4607 12.6032 12.3782 12.6588 12.2871 12.6965C12.1961 12.7343 12.0985 12.7535 12 12.7531Z" fill="white"/>
</svg>
