<svg width="20" height="20" viewBox="0 0 20 20" fill="none" xmlns="http://www.w3.org/2000/svg">
<path d="M9.09274 1.49298C12.723 0.969138 16.36 0.475653 19.9974 0C20 3.00573 19.9974 6.00904 20 9.01477C16.3651 9.02778 12.7302 9.07982 9.09325 9.09091C9.09018 6.55698 9.09018 4.02498 9.09274 1.49298Z" fill="white"/>
<path d="M0 2.84812C2.71829 2.46298 5.44777 2.13012 8.17724 1.81641C8.17978 4.23137 8.17979 6.644 8.18182 9.05897C5.45438 9.05664 2.72744 9.09492 0 9.08838V2.84812Z" fill="white"/>
<path d="M0 10.0012C2.72591 9.99278 5.45183 10.0328 8.17774 10.0286C8.17774 12.4432 8.18486 14.8577 8.18028 17.2727C5.4564 16.903 2.72846 16.5799 0 16.2419V10.0012Z" fill="white"/>
<path d="M9.09088 10C12.7279 10 16.3629 10 19.9979 10C20.0025 13.0297 19.9979 16.0593 19.9979 19.0909C16.3721 18.5726 12.7397 18.0913 9.10671 17.6211C9.10262 15.0816 9.09548 12.542 9.09088 10Z" fill="white"/>
</svg>
